<?xml version="1.0" encoding="UTF-8" standalone="no"?>
<svg
   xmlns:dc="http://purl.org/dc/elements/1.1/"
   xmlns:cc="http://creativecommons.org/ns#"
   xmlns:rdf="http://www.w3.org/1999/02/22-rdf-syntax-ns#"
   xmlns:svg="http://www.w3.org/2000/svg"
   xmlns="http://www.w3.org/2000/svg"
   xmlns:sodipodi="http://sodipodi.sourceforge.net/DTD/sodipodi-0.dtd"
   xmlns:inkscape="http://www.inkscape.org/namespaces/inkscape"
   version="1.1"
   x="0px"
   y="0px"
   width="100px"
   height="100px"
   viewBox="0 0 100 100"
   enable-background="new 0 0 100 100"
   xml:space="preserve"
   id="svg2"
   inkscape:version="0.91 r13725"
   sodipodi:docname="build.svg"
   inkscape:export-filename="C:\Users\wilkie\occam\configuration.png"
   inkscape:export-xdpi="18"
   inkscape:export-ydpi="18"><metadata
     id="metadata122"><rdf:RDF><cc:Work
         rdf:about=""><dc:format>image/svg+xml</dc:format><dc:type
           rdf:resource="http://purl.org/dc/dcmitype/StillImage" /><dc:title></dc:title></cc:Work></rdf:RDF></metadata><defs
     id="defs120" /><sodipodi:namedview
     pagecolor="#ffffff"
     bordercolor="#666666"
     borderopacity="1"
     objecttolerance="10"
     gridtolerance="10"
     guidetolerance="10"
     inkscape:pageopacity="0"
     inkscape:pageshadow="2"
     inkscape:window-width="1920"
     inkscape:window-height="1057"
     id="namedview118"
     showgrid="false"
     inkscape:zoom="4.72"
     inkscape:cx="62.164067"
     inkscape:cy="32.48811"
     inkscape:window-x="-8"
     inkscape:window-y="1072"
     inkscape:window-maximized="1"
     inkscape:current-layer="svg2"
     showguides="true"
     inkscape:guide-bbox="true" /><path
     style="opacity:1;fill:#2da0b7;fill-opacity:1;stroke:none"
     d="M 1.2421204,42.71773 16.56753,58.043139 29.799657,44.811012 26.595782,32.849037 14.383071,29.57678 1.2421204,42.71773 Z m 19.3460816,-19.346082 3.737009,1.001686 -1.001685,-3.737009 -2.735324,2.735323 z m 9.037965,-9.037965 3.307715,12.346947 11.82774,3.168416 L 58.043138,16.567532 42.717729,1.2421214 29.626167,14.333683 Z m 5.579552,20.823917 0.897845,3.349505 2.452927,-2.452927 -3.350772,-0.896578 z"
     id="rect4143"
     inkscape:connector-curvature="0" /><path
     style="fill:#2da0b7;fill-opacity:1;fill-rule:evenodd;stroke:none;stroke-width:1.0334214px;stroke-linecap:butt;stroke-linejoin:miter;stroke-opacity:1"
     d="m 44.067024,36.033611 -2.955119,2.957133 -2.12116,2.12116 -2.957133,2.955119 c 0.263285,0.178546 0.519869,0.372577 0.777557,0.564031 l 15.178475,0 c -3.180065,-2.819618 -5.867747,-5.567304 -7.92262,-8.597443 z m -0.640577,14.62653 c 0.5227,0.566656 1.046818,1.154098 1.573242,1.754539 l 16.38107,0 c -0.732343,-0.591084 -1.463628,-1.181307 -2.173533,-1.754539 l -15.780779,0 z m 6.589089,7.777584 c 4.017005,4.963603 8.488461,10.618246 14.370702,16.928986 6.755428,7.247524 20.123301,17.175467 26.338229,23.391168 l 2.95512,-2.957133 2.12116,-2.12116 2.957133,-2.95512 C 92.542179,84.509538 82.614239,71.141661 75.366712,64.386237 c -2.341308,-2.182333 -4.556377,-4.11585 -6.70794,-5.948512 l -18.643236,0 z"
     id="path4145"
     inkscape:connector-curvature="0" /><path
     style="opacity:1;fill:#64c4d9;fill-opacity:1;stroke:none"
     d="m 23.446572,18.8107 7.248359,27.050917 5.335971,-5.33597 -7.248359,-27.050918 -5.335971,5.335971 z"
     id="rect4153"
     inkscape:connector-curvature="0" /><path
     style="opacity:1;fill:#64c4d9;fill-opacity:1;stroke:none"
     d="m 13.475094,28.782776 12.645806,3.388763 -1.952717,-7.289131 -5.356675,-1.436044 -5.336414,5.336412 z m 19.93367,-1.424648 1.952717,7.289132 5.16419,1.382858 5.335146,-5.335147 -12.452053,-3.336843 z"
     id="rect4155"
     inkscape:connector-curvature="0" /><path
     inkscape:connector-curvature="0"
     style="fill:#e7ceec;fill-opacity:1;fill-rule:evenodd;stroke:none;stroke-width:1.0334214px;stroke-linecap:butt;stroke-linejoin:miter;stroke-opacity:1"
     d="m 110.84345,9.6949141 -1.65234,1.6523439 1.65234,0 0,-1.6523439 z m 5.94922,0.4843749 0,1.167969 1.08789,0 c -0.3727,-0.387784 -0.73705,-0.775992 -1.08789,-1.167969 z m -7.11523,6.957031 c 0.39068,0.348028 0.77961,0.706476 1.16601,1.076172 l 0,-1.076172 -1.16601,0 z m 7.11523,0 0,7.601562 c 4.63086,5.536969 9.70901,12.313134 16.85938,19.984376 6.54995,7.027081 19.51122,16.653051 25.53711,22.679691 l 2.86523,-2.86719 2.05664,-2.05664 2.86719,-2.86524 C 160.95158,53.586989 151.32561,40.62572 144.29853,34.075773 136.58877,26.889504 129.77089,21.78635 124.22236,17.13632 l -7.42969,0 z"
     id="path4145-9" /><path
     inkscape:connector-curvature="0"
     style="opacity:1;fill:#ffaaaa;fill-opacity:1;stroke:none"
     d="m 106.71845,12.122648 -1.22851,1.228516 0,2.015625 c 0.46146,0.312935 0.9146,0.648475 1.36523,0.99414 l 18.33985,0 c -1.73097,-1.44496 -3.37138,-2.855105 -4.82422,-4.238281 l -13.65235,0 z"
     id="rect4181-8" /><path
     inkscape:connector-curvature="0"
     style="opacity:1;fill:#ffaaaa;fill-opacity:1;stroke:none"
     d="m 113.92158,5.3882731 a 1.1986056,1.1986056 0 0 0 -0.81836,0.349609 l -1.4043,1.404297 0,4.1601569 4.23828,0 0,-4.0234379 c -0.34566,-0.45063 -0.6812,-0.903776 -0.99414,-1.365234 a 1.1986056,1.1986056 0 0 0 -1.02148,-0.525391 z m -2.22266,11.7929689 0,3.613281 c 1.30493,1.370659 2.63464,2.912341 3.99219,4.53125 l 0.24609,0 0,-8.144531 -4.23828,0 z"
     id="rect4183-4" /><path
     style="opacity:1;fill:#64c4d9;fill-opacity:1;stroke:none"
     d="m 36.472751,45.241416 c 1.869451,1.363129 3.653234,2.964665 5.430812,4.808363 l 17.674312,0 C 57.506848,48.3769 55.543396,46.774506 53.756269,45.241416 l -17.283518,0 z"
     id="rect4243"
     inkscape:connector-curvature="0" /><path
     style="opacity:1;fill:#64c4d9;fill-opacity:1;stroke:none"
     d="m 44.610911,53.023028 c 1.299013,1.489339 2.639196,3.105445 4.02275,4.806349 l 20.377631,0 c -2.00645,-1.710205 -3.929661,-3.308063 -5.77326,-4.806349 l -18.627121,0 z"
     id="rect4245"
     inkscape:connector-curvature="0" /><path
     sodipodi:nodetypes="csccccscccc"
     inkscape:connector-curvature="0"
     id="path4247"
     d="m 108.44557,60.513622 c 8.60398,5.834753 14.82506,16.759711 27.49006,30.347305 6.54995,7.027081 19.51098,16.652993 25.53687,22.679633 l 2.86586,-2.86585 2.05669,-2.05669 2.86585,-2.86586 C 163.23426,99.726268 153.60835,86.765243 146.58127,80.215296 132.99367,67.550294 122.06871,61.329216 116.23396,52.725225 l -2.86585,2.865853 -2.05669,2.056689 z"
     style="fill:#e7ceec;fill-opacity:1;fill-rule:evenodd;stroke:none;stroke-width:1.0334214px;stroke-linecap:butt;stroke-linejoin:miter;stroke-opacity:1" /></svg>