<svg xmlns="http://www.w3.org/2000/svg" viewBox="0 0 100 100"><path fill-rule="evenodd" d="M-119.521 229.871l-.131 1.193-1.725-1.01-.51.919c-.109-.422-.274-.693-.199-.851.122-.255.369-.516.625-.618.167-.066.437.181.672.226.365.07.738.085 1.268.141z" clip-rule="evenodd"/><path fill="#64c4d9" fill-rule="evenodd" d="M55.85 50.776c-12.255 4.988-26.282-.925-31.27-13.18-4.985-12.254.928-26.282 13.182-31.268 12.254-4.988 26.282.925 31.267 13.18 4.989 12.253-.924 26.282-13.179 31.268zM40 11.825c-9.225 3.754-13.675 14.31-9.92 23.534 3.752 9.224 14.31 13.675 23.534 9.92 9.223-3.753 13.674-14.311 9.919-23.535-3.753-9.223-14.31-13.672-23.534-9.92zM61.272 54.414a2.02 2.02 0 01-1.109 2.63l-3.022 1.232a2.019 2.019 0 11-1.522-3.74l3.021-1.231a2.021 2.021 0 012.632 1.109zM67.194 71.75c-1.493-3.667-2.262-9.265-2.948-10.955-.69-1.69-2.5-3.05-2.5-3.05l-2.589 1.056-.071.029-2.59 1.053s-.347 2.238.341 3.927c.688 1.69 4.045 6.234 5.538 9.902 2.342 5.754 3.643 15.955 4.798 18.795.38.935 2.484 4.146 6.655 2.449l-.058-.142.059.142c4.172-1.699 3.436-5.464 3.055-6.4-1.157-2.842-7.348-11.052-9.69-16.805z"/></svg>