<?xml version="1.0" encoding="UTF-8" standalone="no"?>
<!-- Created with Inkscape (http://www.inkscape.org/) -->

<svg
   xmlns:dc="http://purl.org/dc/elements/1.1/"
   xmlns:cc="http://creativecommons.org/ns#"
   xmlns:rdf="http://www.w3.org/1999/02/22-rdf-syntax-ns#"
   xmlns:svg="http://www.w3.org/2000/svg"
   xmlns="http://www.w3.org/2000/svg"
   xmlns:sodipodi="http://sodipodi.sourceforge.net/DTD/sodipodi-0.dtd"
   xmlns:inkscape="http://www.inkscape.org/namespaces/inkscape"
   width="122mm"
   height="122mm"
   viewBox="0 0 432.28344 432.28346"
   id="svg2"
   version="1.1"
   inkscape:version="0.91 r13725"
   sodipodi:docname="video.svg">
  <defs
     id="defs4" />
  <sodipodi:namedview
     id="base"
     pagecolor="#ffffff"
     bordercolor="#666666"
     borderopacity="1.0"
     inkscape:pageopacity="0.0"
     inkscape:pageshadow="2"
     inkscape:zoom="0.7"
     inkscape:cx="118.33762"
     inkscape:cy="398.56675"
     inkscape:document-units="px"
     inkscape:current-layer="layer1"
     showgrid="false"
     fit-margin-top="0"
     fit-margin-left="0"
     fit-margin-right="0"
     fit-margin-bottom="0"
     inkscape:window-width="1920"
     inkscape:window-height="1057"
     inkscape:window-x="-8"
     inkscape:window-y="1072"
     inkscape:window-maximized="1" />
  <metadata
     id="metadata7">
    <rdf:RDF>
      <cc:Work
         rdf:about="">
        <dc:format>image/svg+xml</dc:format>
        <dc:type
           rdf:resource="http://purl.org/dc/dcmitype/StillImage" />
        <dc:title></dc:title>
      </cc:Work>
    </rdf:RDF>
  </metadata>
  <g
     inkscape:label="Layer 1"
     inkscape:groupmode="layer"
     id="layer1"
     transform="translate(-192.08339,-246.60591)">
    <path
       style="fill:#808080"
       d="m 268.58741,403.2398 c -19.19453,0 -34.64844,15.45196 -34.64844,34.64649 l 0,192.13477 c 0,19.19452 15.45391,34.64648 34.64844,34.64648 l 279.27734,0 c 19.19453,0 34.64648,-15.45196 34.64648,-34.64648 l 0,-192.13477 c 0,-19.19453 -15.45195,-34.64649 -34.64648,-34.64649 l -279.27734,0 z m 20.47265,34.64649 238.33008,0 c 13.08718,0 23.62305,10.53587 23.62305,23.62305 l 0,144.88867 c 0,13.08718 -10.53587,23.62305 -23.62305,23.62305 l -238.33008,0 c -13.08717,0 -23.62304,-10.53587 -23.62304,-23.62305 l 0,-144.88867 c 0,-13.08718 10.53587,-23.62305 23.62304,-23.62305 z"
       id="rect3403"
       inkscape:connector-curvature="0" />
    <path
       style="fill:#808080"
       d="m 408.22608,331.52496 a 50.714289,50.714289 0 0 0 -50.46485,45.71484 l 100.87891,0 a 50.714289,50.714289 0 0 0 -50.41406,-45.71484 z"
       id="path3405"
       inkscape:connector-curvature="0" />
    <path
       style="fill:#808080"
       d="m 312.26123,260.82769 -16.16211,16.16211 53.30079,53.30274 c 5.13291,-5.69443 11.02612,-10.71924 17.47265,-14.85352 l -54.61133,-54.61133 z"
       id="rect3410"
       inkscape:connector-curvature="0" />
    <path
       style="fill:#808080"
       d="m 504.18897,260.82769 -54.62695,54.62891 c 6.44411,4.13686 12.33301,9.16507 17.46289,14.86133 l 53.32812,-53.32813 -16.16406,-16.16211 z"
       id="rect3412"
       inkscape:connector-curvature="0" />
  </g>
</svg>
