<svg xmlns="http://www.w3.org/2000/svg" data-name="Layer 2" viewBox="0 0 512 512" x="0px" y="0px"><title>apatosaurus extinct wildlife animal dinosaur</title><path d="M200.37,386.59a4.34,4.34,0,0,0-8.67.17l1.23,64.68a4.33,4.33,0,0,0,4.33,4.25h66.52a4.34,4.34,0,0,0,4.32-4.7c-.06-.67-1.45-15.48-14.7-21.85V395.28c4.29-3.69,15-14.32,17.42-30a4.34,4.34,0,1,0-8.57-1.33c-2.43,15.69-15.58,25.66-15.76,25.8l-.22.19a3.47,3.47,0,0,0-.34.32,4.15,4.15,0,0,0-.27.32c-.09.11-.17.22-.25.34s-.14.24-.2.37-.13.25-.18.38a8,8,0,0,0-.22.81,3.56,3.56,0,0,0-.05.47,2.66,2.66,0,0,0,0,.28V432a4.34,4.34,0,0,0,2.94,4.11A17.27,17.27,0,0,1,258.31,447H201.52Z"></path><path d="M74.31,453.61a54.86,54.86,0,0,0,24.86,5.74c1.65,0,3.32-.07,5-.21,37-3,61.87-23.64,76.22-40.43a4.33,4.33,0,1,0-6.59-5.63c-13.29,15.55-36.28,34.66-70.33,37.42a47.18,47.18,0,0,1-25.23-4.62c-17.18-8.73-23.12-25.06-17.65-48.61.27-1.21,6.92-29.66,41.24-28.86h.11a4.34,4.34,0,0,0,.1-8.67c-41.55-1-49.84,35.33-49.9,35.63C43.64,431.92,62.38,447.55,74.31,453.61Z"></path><path d="M90.19,394.18a4.34,4.34,0,0,0-.36,8.67l1.39,0c23.32,0,34.62-24.93,37.52-32.64a.59.59,0,0,1,.06-.14,4.56,4.56,0,0,0,.24-.55c0-.08.08-.15.11-.23l.12-.38h0a304.82,304.82,0,0,1,30.68-70.5c19.65-32.76,54-73.54,106.27-81.85.46-.08,46.92-8.34,86.93,7.59a4.32,4.32,0,0,0,3.68-.22c2.14-1.17,52.37-29.14,51.5-79.32,0-2.31-.24-28.47-30.36-40.59A22.22,22.22,0,0,1,392,62c25.54,6.48,67.36,28.86,60.54,105.9-.06.64-6.86,64.57-65.19,103.89a4.34,4.34,0,0,0-1.9,4c0,.45,3.53,45-29.38,77.68a4.32,4.32,0,0,0-1.28,2.95l-2.2,74.29a4.34,4.34,0,0,0,3,4.25A17.41,17.41,0,0,1,367.16,447H306.74v-80.2a4.34,4.34,0,0,0-8.67,0v16.77a194.8,194.8,0,0,1-23.52,3.93,4.33,4.33,0,1,0,.92,8.62,205.9,205.9,0,0,0,22.6-3.65v58.86a4.33,4.33,0,0,0,4.33,4.34h69.89a4.34,4.34,0,0,0,4.33-4.42c0-.72-.5-16.63-15.23-23.38l2.06-69.53c30.34-31.12,31.19-70.33,30.83-80.77C454.08,236,461,171.5,461.22,168.71c7.38-83.47-38.83-108-67-115.11a31.12,31.12,0,0,0-24.44,4,30.89,30.89,0,0,0,5,54.5c25.08,10.09,24.93,31.52,24.92,32.4a.74.74,0,0,0,0,.21c.74,40.06-36.81,65.43-45.3,70.64-41.86-15.84-87.75-7.65-89.61-7.31-44,7-82.8,36.77-112.35,86.13a307.82,307.82,0,0,0-31.52,72.55C119.49,370.53,109.76,395,90.19,394.18Z"></path><path d="M394.75,78.71a4.33,4.33,0,0,0-3.57,7.9l6.61,3a4.33,4.33,0,0,0,3.57-7.9Z"></path></svg>