<svg xmlns="http://www.w3.org/2000/svg" data-name="Layer 2" viewBox="0 0 512 512" x="0px" y="0px"><title>nodosaurus extinct wildlife animal dinosaur</title><path d="M157.15,300.09a3.77,3.77,0,0,0-5.1-5.54c-13,11.94-29,20.95-40.13,26.41A106.85,106.85,0,0,1,66.6,332C41.4,332.34,25.08,324,18,307.18c-6.15-14.63-6.27-27.69-.35-38.81,7-13.21,22.32-20,36.35-16.22a32,32,0,0,1,6.88,2.76,3.77,3.77,0,0,0,3.6-6.62A39.42,39.42,0,0,0,56,244.88c-17.4-4.72-36.31,3.67-45,19.95-7,13.22-7,28.45.05,45.27,8.12,19.3,26.88,29.47,54.31,29.47h1.31a114.39,114.39,0,0,0,48.54-11.84C126.83,322.05,143.53,312.65,157.15,300.09Z"></path><path d="M204.53,160.56a3.77,3.77,0,0,0,.12-7.53c-2.05-.06-50.06-.42-85.18,36.2a16.5,16.5,0,0,0-3.8,6.4,3.78,3.78,0,0,0,2.46,4.73,3.78,3.78,0,0,0,4.72-2.46,8.88,8.88,0,0,1,2.06-3.45c32-33.34,76.84-33.89,79.5-33.89Z"></path><path d="M217.33,140.6c40.32-3.61,87,11.6,87.46,11.75a3.76,3.76,0,1,0,2.36-7.15c-2-.65-48.58-15.86-90.49-12.1a15.39,15.39,0,0,0-6.17,1.91,3.77,3.77,0,0,0,3.7,6.57A7.74,7.74,0,0,1,217.33,140.6Z"></path><path d="M399.34,184.14a3.72,3.72,0,0,0,2.85-1.31,3.76,3.76,0,0,0-.39-5.31c-1.42-1.23-35.28-30.25-74.82-43.08a15.13,15.13,0,0,0-6.94-.57,3.77,3.77,0,1,0,1.13,7.45,7.61,7.61,0,0,1,3.48.28c38.06,12.36,71.89,41.33,72.23,41.62A3.73,3.73,0,0,0,399.34,184.14Z"></path><path d="M422.56,172.2a15.2,15.2,0,0,0-4.56-1.94,3.76,3.76,0,0,0-1.79,7.31,7.62,7.62,0,0,1,2.29,1c24.43,15.59,42,46.73,42.16,47a3.75,3.75,0,0,0,3.29,1.93,3.68,3.68,0,0,0,1.83-.48,3.76,3.76,0,0,0,1.46-5.12C466.49,220.58,448.61,188.83,422.56,172.2Z"></path><path d="M498.07,257.65c-.39-.91-9.58-22.52-16.76-36.22a3.77,3.77,0,1,0-6.67,3.5c7,13.42,16.4,35.44,16.51,35.71,12.35,28,6.84,47.83,2.47,57.15a6,6,0,0,1-8.11,2.79l-26.38-13.37c-6.31-3.64-10.12-8.66-11.3-14.94a34.35,34.35,0,0,0-33.7-28.08h-.8a34.14,34.14,0,0,0-26.84,13.86c-19.43,25.8-39.16,39.25-52.3,46a3.69,3.69,0,0,0-1.77,1.94c-6.86,17-8,34.45-8,43.35a2.65,2.65,0,0,1-2.66,2.61H297.32a4.7,4.7,0,0,1-4.7-4.69V335.55h0v0c0-.18,0-18.26,13-27.18a3.77,3.77,0,1,0-4.27-6.21c-12.23,8.41-15.24,22.61-16,29.5a273.19,273.19,0,0,1-35.72-4.1,3.77,3.77,0,1,0-1.34,7.42,282.92,282.92,0,0,0,36.82,4.22v28.1a12.25,12.25,0,0,0,12.23,12.23h24.43a10.2,10.2,0,0,0,10.19-10.11c0-8.13,1-23.86,7-39.29,11.21-5.93,26.56-16.31,42.45-34,13.06,22.9,13.1,58.62,12.46,73.5a2.42,2.42,0,0,1-2.43,2.32H369a1.39,1.39,0,0,1-1-.44,1.43,1.43,0,0,1-.38-1.09,70.05,70.05,0,0,0-3.65-29.5,3.76,3.76,0,1,0-7.08,2.56,62.78,62.78,0,0,1,3.22,26.36A9,9,0,0,0,369,379.5h22.34a10,10,0,0,0,10-9.53c.69-16,.57-55.25-14.8-79.83q3-3.6,6-7.55a27,27,0,0,1,20.94-10.86h.69a26.8,26.8,0,0,1,26.3,21.94c1.59,8.45,6.79,15.41,15.05,20.12l.16.09,26.47,13.42a13.5,13.5,0,0,0,18.32-6.3C505.36,310.51,511.59,288.34,498.07,257.65Z"></path><path d="M238.08,309.72c-.86-10.15-6.85-20-17.82-29.18a3.77,3.77,0,0,0-4.84,5.77c25,21,11.8,37.59,11.2,38.32-.05.05-.08.12-.13.18l-.14.18c-6.89,10.54-17.34,18.59-17.45,18.67a3.79,3.79,0,0,0-1.45,3.5l2.68,19.9a4.31,4.31,0,0,1-4.29,4.9H174.15a4,4,0,0,1-3.09-1.44,4.09,4.09,0,0,1-.89-3.33c3-17.17,13.53-40.44,13.64-40.67a3.78,3.78,0,0,0-.35-3.73,90.44,90.44,0,0,1-10-18.68c-.15-.38-5.29-14.25-.18-23.92a3.77,3.77,0,1,0-6.66-3.52c-6.78,12.82-.45,29.47-.18,30.18h0v0a100.15,100.15,0,0,0,9.65,18.48c-2.67,6.12-10.64,25.21-13.33,40.53a11.59,11.59,0,0,0,11.4,13.61h31.69a11.85,11.85,0,0,0,11.75-13.44l-2.39-17.8a92.53,92.53,0,0,0,17.33-19A28.57,28.57,0,0,0,238.08,309.72Z"></path><path d="M47.54,261.39A3.76,3.76,0,0,0,43,264.13a14.16,14.16,0,0,0,.36,8.55,13.3,13.3,0,0,0,12.55,8.39h.37c15.28-.4,23.69-7.6,25.31-9.14a89.9,89.9,0,0,0,7.85-6.43,167.55,167.55,0,0,0,27.21-31.75c5.91-8.91,11.86-18.25,11.92-18.35a3.76,3.76,0,1,0-6.35-4c-.06.09-6,9.38-11.85,18.22a160,160,0,0,1-26,30.33,83.05,83.05,0,0,1-7.38,6c-.13.09-.24.21-.36.31l-.17.14c-.28.28-6.91,6.8-20.4,7.15h-.17A5.84,5.84,0,0,1,50.38,270a6.66,6.66,0,0,1-.1-4.07A3.77,3.77,0,0,0,47.54,261.39Z"></path><path d="M475.6,277a3.77,3.77,0,0,0,6.19-4.3l-2.89-4.16a3.77,3.77,0,0,0-6.19,4.31Z"></path><path d="M399.07,223.33c6.38,3.74,12.82,7.81,19.12,12.1a3.76,3.76,0,0,0,4.24-6.22c-6.45-4.39-13-8.55-19.55-12.38a3.77,3.77,0,0,0-3.81,6.5Z"></path><path d="M372.73,209.14A3.77,3.77,0,0,0,374.3,202a278.58,278.58,0,0,0-52.87-18.07,3.77,3.77,0,0,0-1.69,7.34,270.93,270.93,0,0,1,51.43,17.58A3.79,3.79,0,0,0,372.73,209.14Z"></path><path d="M277.08,185.23a3.77,3.77,0,0,0,.4-7.53,249.79,249.79,0,0,0-50.09,2.46,3.77,3.77,0,0,0,.55,7.49,3.66,3.66,0,0,0,.57-.05A242.85,242.85,0,0,1,277.08,185.23Z"></path><path d="M148.78,214.58a3.69,3.69,0,0,0,2-.6c.13-.08,12.79-8.14,34.39-15.68a3.77,3.77,0,1,0-2.48-7.11c-22.52,7.86-35.45,16.11-36,16.46a3.76,3.76,0,0,0,2,6.93Z"></path><path d="M360.58,236.42c6.13,2.62,12.33,5.55,18.41,8.69a3.87,3.87,0,0,0,1.73.42,3.76,3.76,0,0,0,1.73-7.11c-6.24-3.23-12.61-6.23-18.91-8.93a3.77,3.77,0,1,0-3,6.93Z"></path><path d="M276.17,217.08A219,219,0,0,1,310.8,221a4.39,4.39,0,0,0,.72.07,3.77,3.77,0,0,0,.71-7.47,226.86,226.86,0,0,0-35.82-4,3.77,3.77,0,1,0-.24,7.53Z"></path><path d="M209.08,218.23c-19,5.76-29.69,12.2-30.14,12.47a3.77,3.77,0,0,0,2,7,3.82,3.82,0,0,0,1.94-.54c.1-.07,10.47-6.25,28.43-11.71a3.77,3.77,0,0,0-2.19-7.21Z"></path></svg>