<?xml version="1.0" encoding="UTF-8" standalone="no"?>
<svg
   xmlns:dc="http://purl.org/dc/elements/1.1/"
   xmlns:cc="http://creativecommons.org/ns#"
   xmlns:rdf="http://www.w3.org/1999/02/22-rdf-syntax-ns#"
   xmlns:svg="http://www.w3.org/2000/svg"
   xmlns="http://www.w3.org/2000/svg"
   xmlns:sodipodi="http://sodipodi.sourceforge.net/DTD/sodipodi-0.dtd"
   xmlns:inkscape="http://www.inkscape.org/namespaces/inkscape"
   data-name="Layer 2"
   viewBox="0 0 512 512"
   x="0px"
   y="0px"
   version="1.1"
   id="svg853"
   sodipodi:docname="stegosaurus.svg"
   inkscape:version="1.0.1 (3bc2e813f5, 2020-09-07)">
  <metadata
     id="metadata859">
    <rdf:RDF>
      <cc:Work
         rdf:about="">
        <dc:format>image/svg+xml</dc:format>
        <dc:type
           rdf:resource="http://purl.org/dc/dcmitype/StillImage" />
      </cc:Work>
    </rdf:RDF>
  </metadata>
  <defs
     id="defs857" />
  <sodipodi:namedview
     pagecolor="#ffffff"
     bordercolor="#666666"
     borderopacity="1"
     objecttolerance="10"
     gridtolerance="10"
     guidetolerance="10"
     inkscape:pageopacity="0"
     inkscape:pageshadow="2"
     inkscape:window-width="1920"
     inkscape:window-height="1057"
     id="namedview855"
     showgrid="false"
     inkscape:zoom="2.5507812"
     inkscape:cx="175.7091"
     inkscape:cy="333.99899"
     inkscape:window-x="-8"
     inkscape:window-y="1064"
     inkscape:window-maximized="1"
     inkscape:current-layer="svg853" />
  <title
     id="title847">stegosaurus extinct wildlife animal dinosaur</title>
  <path
     id="path849"
     d="M 304.0625 84.990234 C 301.68111 85.028907 299.27742 85.633077 297.05078 86.859375 C 284.25078 93.949375 256.71922 114.33047 244.19922 140.73047 C 244.01892 141.10282 243.8981 141.50058 243.83984 141.91016 C 243.83984 142.09016 243.18039 146.51094 242.90039 153.46094 C 242.68039 158.95427 250.92062 159.28239 251.14062 153.78906 C 251.35063 148.71906 251.74969 145.05945 251.92969 143.68945 C 263.67969 119.45945 289.14078 100.69008 301.05078 94.080078 C 304.2447 92.297597 308.27668 93.378258 310.15039 96.519531 C 326.69039 124.99953 323.71039 167.45906 323.15039 173.78906 C 319.64164 179.61611 315.35183 184.93602 310.40039 189.59961 C 306.80039 187.52961 303.06039 185.59953 299.15039 183.76953 C 277.84039 173.97953 254.45039 169.82016 228.15039 171.16016 C 230.37039 160.69016 231.40039 151.9893 231.15039 145.2793 C 231.12289 144.49733 230.87596 143.73923 230.43945 143.08984 C 229.61945 141.87984 210.05039 113.21984 181.90039 91.089844 C 177.72662 87.859835 172.2182 86.922297 167.21094 88.589844 C 162.7739 89.918144 159.28089 93.354603 157.88086 97.769531 C 153.08086 114.33953 148.27969 138.77016 152.67969 161.16016 C 152.76679 161.59515 152.92291 162.01387 153.14062 162.40039 C 155.89828 167.05343 158.95313 171.52171 162.28906 175.7793 C 165.66239 180.1193 172.17411 175.0607 168.80078 170.7207 C 165.85708 166.93644 163.13246 162.98657 160.64062 158.89062 C 156.59062 137.22063 162.12055 112.78031 165.81055 100.07031 C 166.42801 98.280945 167.89901 96.917833 169.73047 96.439453 C 172.13004 95.636224 174.77112 96.059159 176.80078 97.570312 C 201.06078 116.66031 219.23969 141.57 222.92969 146.75 C 222.92969 153.09 221.7893 161.75 219.5293 171.75 C 216.6393 172.02 213.72953 172.33 210.76953 172.75 C 209.25953 172.92 181.90953 176.34945 151.76953 195.68945 C 148.71802 187.23489 145.12092 178.98807 141 171 C 140.66336 170.37248 140.17121 169.84308 139.57031 169.46094 C 125.39031 160.46094 109.29906 155.08062 98.289062 152.14062 C 91.055665 150.20648 84.097868 156.04008 84.740234 163.5 C 86.300234 181.66 91.399375 203.10977 91.609375 204.00977 C 91.748355 204.5891 92.012514 205.13135 92.380859 205.59961 C 95.320859 209.34961 99.9 213.20078 106 217.05078 C 110.66666 219.98411 115.06705 212.98411 110.40039 210.05078 C 106.3231 207.63499 102.61785 204.63985 99.400391 201.16016 C 98.400391 196.87016 94.269688 178.24953 92.929688 162.76953 C 92.787757 161.00219 94.436508 159.62596 96.150391 160.08008 C 104.51039 162.31008 120.41039 167.29055 134.15039 175.81055 C 138.18912 183.79059 141.69675 192.02864 144.65039 200.4707 C 136.4906 206.34995 128.90627 212.98975 122 220.30078 C 116.4308 226.24864 109.9834 231.30742 102.88086 235.30078 C 101.14086 236.30078 99.240937 237.36055 97.210938 238.56055 C 92.930937 232.17055 87.210938 224.39914 82.460938 220.61914 C 82.1314 220.36605 81.767741 220.16133 81.380859 220.00977 C 80.700859 219.73977 64.459766 213.54094 48.759766 212.46094 C 41.752438 211.97399 36.66798 219.00954 39.330078 225.50977 C 42.810078 233.94977 48.480234 245.37937 55.740234 251.85938 C 55.951822 252.04268 56.179086 252.2069 56.419922 252.34961 C 56.419922 252.34961 57.079297 252.73961 58.279297 253.34961 C 63.065033 255.54051 66.619355 248.62347 62.050781 246.00977 C 61.550781 245.75977 61.170156 245.55016 60.910156 245.41016 C 56.250156 241.09016 51.310156 232.93016 46.910156 222.41016 C 46.73945 222.0286 46.788131 221.5843 47.039062 221.25 C 47.28881 220.88988 47.71385 220.69186 48.150391 220.73047 C 60.970391 221.61047 74.739766 226.41953 77.759766 227.51953 C 80.819766 230.14953 85.260156 235.6807 90.160156 242.9707 C 62.000156 261.3907 19.130469 298.80953 21.480469 355.51953 C 21.805702 363.69699 23.533579 371.75778 26.589844 379.34961 L 21.589844 396.68945 C 20.946585 398.87739 22.208235 401.17204 24.400391 401.80078 C 26.573326 402.42491 28.841724 401.17153 29.470703 399 L 32.070312 390.07031 C 34.283256 393.59814 36.827757 396.90541 39.669922 399.94922 C 42.17075 402.61421 44.843115 405.11334 47.669922 407.42969 L 47.669922 416.66992 C 47.553794 419.02778 49.434204 421.00391 51.794922 421.00391 C 54.15564 421.00391 56.03605 419.02778 55.919922 416.66992 L 55.919922 413.40039 C 61.091788 416.6586 66.604035 419.34122 72.359375 421.40039 C 77.902239 423.38722 84.080855 421.23586 87.191406 416.23633 C 90.301956 411.2368 89.501069 404.74489 85.269531 400.65039 C 83.419665 398.88383 81.689502 396.99595 80.089844 395 L 85.429688 395 C 90.66547 394.74213 90.66547 387.00787 85.429688 386.75 L 74.710938 386.75 C 72.236745 381.98585 70.617568 376.82405 69.929688 371.5 C 69.759687 370.21 69.669141 368.90961 69.619141 367.59961 L 82.529297 369.7793 C 82.75713 369.8192 82.989401 369.83984 83.220703 369.83984 C 88.327801 369.89114 88.946023 362.44203 83.900391 361.65039 L 70.070312 359.31055 C 71.392023 350.6258 75.014234 342.45313 80.560547 335.64062 C 87.190547 327.42062 98.810703 316.80039 116.4707 312.90039 C 125.83622 310.83842 135.63227 313.10464 143.14062 319.07031 C 149.14062 323.90031 153.14086 329.23945 154.88086 334.93945 C 155.03056 335.46268 155.10032 336.00665 155.08984 336.55078 L 155.08984 410.05078 C 155.11714 419.38507 162.6658 426.95062 172 427 L 209.07031 427 C 211.34572 427 213.18945 425.15627 213.18945 422.88086 C 212.88557 415.43622 210.06523 408.31368 205.18945 402.67969 L 205.18945 356.88086 C 205.18945 352.81751 204.36961 349.88586 207.23047 347.34961 C 214.37643 341.01446 230.47047 327.16031 231.23047 299.07031 C 231.37047 293.57698 223.13023 293.36605 222.99023 298.85938 C 222.19023 330.48937 200.20047 342.2207 199.23047 342.7207 L 199.10938 342.80078 C 198.93811 342.89098 198.77402 342.99324 198.61914 343.10938 L 198.41992 343.2793 C 198.29992 343.3893 198.18031 343.49914 198.07031 343.61914 L 197.89062 343.83008 C 197.78268 343.96195 197.68468 344.10234 197.59961 344.25 C 197.55931 344.3077 197.52323 344.36752 197.49023 344.42969 C 197.36915 344.64165 197.27089 344.86627 197.19922 345.09961 C 197.19422 345.13951 197.19422 345.1808 197.19922 345.2207 C 197.13732 345.41344 197.09183 345.61055 197.06055 345.81055 L 197.06055 346.08008 L 197.06055 346.39062 L 197.06055 404.33984 C 197.05964 405.43043 197.49039 406.47706 198.25977 407.25 C 201.36792 410.43697 203.52865 414.42513 204.5 418.76953 L 172 418.76953 C 167.19741 418.76353 163.30629 414.8729 163.30078 410.07031 L 163.30078 336.57031 C 163.31268 335.19478 163.11391 333.825 162.71094 332.50977 C 160.44094 325.20977 155.5793 318.51016 148.2793 312.66016 C 138.84366 305.07116 126.4633 302.19867 114.65039 304.85938 C 94.650391 309.27938 81.559609 321.23047 74.099609 330.48047 C 66.772159 339.47434 62.356244 350.48615 61.439453 362.05078 C 61.404773 362.34643 61.404773 362.6438 61.439453 362.93945 C 61.245703 366.15241 61.353146 369.3773 61.759766 372.57031 C 63.439766 385.42031 69.419062 396.87031 79.539062 406.57031 C 82.811408 409.75294 79.450241 415.15168 75.150391 413.61914 C 63.929807 409.62141 53.827667 402.99864 45.689453 394.30078 C 35.846426 383.59571 30.169382 369.71425 29.689453 355.17969 C 27.129453 293.59969 82.809375 255.91055 106.85938 242.56055 C 114.71061 238.15285 121.84064 232.56748 128 226 C 165 186.9 211.27078 181 211.80078 181 C 283.31078 171.47 320.06062 202.00055 348.89062 231.31055 C 365.60062 248.31055 385.05969 257.37094 398.42969 261.96094 C 408.25343 265.25395 418.49642 267.12785 428.84961 267.5293 C 459.84961 268.9293 474.50008 282.12922 481.33008 292.94922 C 484.22814 297.63287 480.63803 303.63819 475.14062 303.30078 C 444.27062 301.30078 406.62914 306.19063 391.86914 308.39062 C 385.90143 309.30795 380.60962 312.72591 377.32031 317.78906 C 360.43031 343.55906 330.79023 360.40031 330.49023 360.57031 C 329.19014 361.30166 328.38731 362.67824 328.39062 364.16992 L 328.39062 404.93945 C 328.39662 406.38148 329.15514 407.71723 330.39062 408.46094 C 333.97179 410.79012 336.32597 414.59543 336.81055 418.83984 L 304.56055 418.83984 C 299.75796 418.83384 295.86488 414.94321 295.85938 410.14062 L 295.85938 346.39062 C 295.6015 341.15485 287.86725 341.15485 287.60938 346.39062 L 287.60938 373.57422 C 263.47662 375.34658 244.84196 370.55205 231.31641 364.47266 A 4.1574798 4.1574798 0 0 0 229.65234 364.10742 A 4.1574798 4.1574798 0 0 0 225.81836 366.56055 A 4.1574798 4.1574798 0 0 0 227.90625 372.05859 C 242.43099 378.5871 262.35277 383.65962 287.60938 381.91211 L 287.60938 410.07031 C 287.64778 419.41233 295.21849 426.9726 304.56055 427 L 341.09961 427 C 343.23572 427.003 345.01731 425.36858 345.19922 423.24023 C 345.24922 422.68023 346.20063 410.13945 336.64062 402.68945 L 336.64062 366.46094 C 344.01063 361.99094 368.7007 345.92023 384.2207 322.24023 C 386.22103 319.14353 389.44723 317.04817 393.08984 316.48047 C 407.57984 314.31047 444.52961 309.48047 474.59961 311.48047 C 486.87242 312.3371 494.90183 298.86847 488.31055 288.48047 C 480.43055 276.00047 463.7907 260.7807 429.2207 259.2207 C 426.2907 259.0907 423.41961 258.83047 420.59961 258.48047 C 421.98961 256.62047 430.79 244.19969 430.25 228.92969 C 430.1757 226.89181 429.24166 224.98092 427.67969 223.66992 C 426.13637 222.38259 424.11984 221.81151 422.13086 222.09961 C 416.01086 222.98961 404.50945 225.60992 396.18945 233.16992 C 395.93724 233.40365 395.71254 233.66463 395.51953 233.94922 C 395.51953 233.94922 395.13953 234.52984 394.51953 235.58984 C 391.7462 240.3365 398.86729 244.49666 401.64062 239.75 L 402.14062 238.91016 C 408.44063 233.44016 417.35953 231.2707 422.01953 230.4707 C 421.94953 241.4707 415.8593 250.89062 414.2793 253.14062 L 410.41016 255.66016 C 410.0658 255.88819 409.75866 256.16824 409.5 256.49023 C 406.62 255.81023 403.81937 255.01984 401.10938 254.08984 C 388.9884 249.95389 377.57758 243.97315 367.2793 236.35938 C 377.6593 230.01937 389.7293 221.08062 395.2793 211.14062 C 395.50283 210.75683 395.65938 210.33711 395.74023 209.90039 C 398.55938 193.99121 399.65525 177.82382 399.00977 161.67969 C 398.76799 157.15298 396.36982 153.01798 392.56055 150.56055 C 388.82371 148.13492 384.14419 147.66577 380 149.30078 C 369.84 153.30078 355.12922 160.6907 342.69922 173.2207 C 342.29116 173.63942 341.97204 174.13492 341.75977 174.67969 C 341.66977 174.93969 339.35977 181.15 336.75977 190 C 335.22644 195.28 343.14636 197.58078 344.67969 192.30078 C 346.67969 185.59078 348.46992 180.30039 349.16992 178.40039 C 360.43992 167.26039 373.74 160.61 383 157 C 384.69386 156.32078 386.61326 156.51093 388.14062 157.50977 C 389.73332 158.52115 390.73305 160.2462 390.82031 162.13086 C 391.92031 183.08086 388.51031 203.74945 387.82031 207.68945 C 383.55031 214.81945 373.8907 222.98984 360.4707 230.83984 C 358.5507 229.15984 356.64906 227.38047 354.78906 225.48047 C 344.47906 215.00047 332.38039 203.61 317.65039 194 C 322.79964 188.96698 327.22841 183.24614 330.81055 177 C 331.06615 176.53296 331.22469 176.01983 331.2793 175.49023 C 331.4993 173.49023 336.4793 125.42914 317.2793 92.369141 C 314.42541 87.559754 309.30155 84.905154 304.0625 84.990234 z " />
  <path
     d="M449.69,288.05a3.71,3.71,0,0,0,.74.07,4.13,4.13,0,0,0,.73-8.19l-7-1.27a4.12,4.12,0,0,0-1.47,8.11Z"
     id="path851" />
</svg>
