<svg xmlns="http://www.w3.org/2000/svg" data-name="Layer 2" viewBox="0 0 512 512" x="0px" y="0px"><title>stegosaurus extinct wildlife animal dinosaur</title><path d="M429.22,259.22c-2.93-.13-5.8-.39-8.62-.74,1.39-1.86,10.19-14.28,9.65-29.55a7.21,7.21,0,0,0-2.57-5.26,7.08,7.08,0,0,0-5.55-1.57c-6.12.89-17.62,3.51-25.94,11.07a4.53,4.53,0,0,0-.67.78s-.38.58-1,1.64a4.12,4.12,0,0,0,7.12,4.16l.5-.84c6.3-5.47,15.22-7.64,19.88-8.44-.07,11-6.16,20.42-7.74,22.67l-3.87,2.52a4,4,0,0,0-.91.83c-2.88-.68-5.68-1.47-8.39-2.4a124.58,124.58,0,0,1-33.83-17.73c10.38-6.34,22.45-15.28,28-25.22a3.86,3.86,0,0,0,.46-1.24,224.87,224.87,0,0,0,3.27-48.22,14.13,14.13,0,0,0-6.45-11.12A13.78,13.78,0,0,0,380,149.3c-10.16,4-24.87,11.39-37.3,23.92a4.36,4.36,0,0,0-.94,1.46c-.09.26-2.4,6.47-5,15.32a4.12,4.12,0,0,0,7.92,2.3c2-6.71,3.79-12,4.49-13.9C360.44,167.26,373.74,160.61,383,157a5.59,5.59,0,0,1,5.14.51,5.79,5.79,0,0,1,2.68,4.62c1.1,20.95-2.31,41.62-3,45.56-4.27,7.13-13.93,15.3-27.35,23.15-1.92-1.68-3.82-3.46-5.68-5.36C344.48,215,332.38,203.61,317.65,194a78.11,78.11,0,0,0,13.16-17,4,4,0,0,0,.47-1.51c.22-2,5.2-50.06-14-83.12a15.07,15.07,0,0,0-20.23-5.51c-12.8,7.09-40.33,27.47-52.85,53.87a4,4,0,0,0-.36,1.18c0,.18-.66,4.6-.94,11.55a4.12,4.12,0,1,0,8.24.33c.21-5.07.61-8.73.79-10.1,11.75-24.23,37.21-43,49.12-49.61a6.76,6.76,0,0,1,9.1,2.44c16.54,28.48,13.56,70.94,13,77.27a74.54,74.54,0,0,1-12.75,15.81c-3.6-2.07-7.34-4-11.25-5.83-21.31-9.79-44.7-13.95-71-12.61,2.22-10.47,3.25-19.17,3-25.88a4.19,4.19,0,0,0-.71-2.19c-.82-1.21-20.39-29.87-48.54-52a15.83,15.83,0,0,0-14.69-2.5,14,14,0,0,0-9.33,9.18c-4.8,16.57-9.6,41-5.2,63.39a4.21,4.21,0,0,0,.46,1.24,125.15,125.15,0,0,0,9.15,13.38,4.12,4.12,0,0,0,6.51-5.06,125.52,125.52,0,0,1-8.16-11.83c-4.05-21.67,1.48-46.11,5.17-58.82a5.66,5.66,0,0,1,3.92-3.63,7.73,7.73,0,0,1,7.07,1.13c24.26,19.09,42.44,44,46.13,49.18,0,6.34-1.14,15-3.4,25-2.89.27-5.8.58-8.76,1-1.51.17-28.86,3.6-59,22.94A207.52,207.52,0,0,0,141,171a4.15,4.15,0,0,0-1.43-1.54c-14.18-9-30.27-14.38-41.28-17.32a10.8,10.8,0,0,0-13.55,11.36c1.56,18.16,6.66,39.61,6.87,40.51a4.13,4.13,0,0,0,.77,1.59c2.94,3.75,7.52,7.6,13.62,11.45a4.12,4.12,0,1,0,4.4-7,49,49,0,0,1-11-8.89c-1-4.29-5.13-22.91-6.47-38.39a2.57,2.57,0,0,1,3.22-2.69c8.36,2.23,24.26,7.21,38,15.73a203.26,203.26,0,0,1,10.5,24.66A159.1,159.1,0,0,0,122,220.3a79.71,79.71,0,0,1-19.12,15c-1.74,1-3.64,2.06-5.67,3.26-4.28-6.39-10-14.16-14.75-17.94a4.42,4.42,0,0,0-1.08-.61c-.68-.27-16.92-6.47-32.62-7.55a9.48,9.48,0,0,0-9.43,13.05c3.48,8.44,9.15,19.87,16.41,26.35a4.69,4.69,0,0,0,.68.49s.66.39,1.86,1a4.13,4.13,0,0,0,3.77-7.34c-.5-.25-.88-.46-1.14-.6-4.66-4.32-9.6-12.48-14-23a1.15,1.15,0,0,1,.13-1.16,1.22,1.22,0,0,1,1.11-.52c12.82.88,26.59,5.69,29.61,6.79,3.06,2.63,7.5,8.16,12.4,15.45C62,261.39,19.13,298.81,21.48,355.52a71.41,71.41,0,0,0,5.11,23.83l-5,17.34a4.11,4.11,0,0,0,2.81,5.11A4.1,4.1,0,0,0,29.47,399l2.6-8.93a65.39,65.39,0,0,0,7.6,9.88,83.86,83.86,0,0,0,8,7.48v9.24a4.13,4.13,0,1,0,8.25,0v-3.27a83.81,83.81,0,0,0,16.44,8,12.5,12.5,0,0,0,12.91-20.75A57.76,57.76,0,0,1,80.09,395h5.34a4.13,4.13,0,0,0,0-8.25H74.71a45.83,45.83,0,0,1-4.78-15.25c-.17-1.29-.26-2.59-.31-3.9l12.91,2.18a4,4,0,0,0,.69.06,4.12,4.12,0,0,0,.68-8.19l-13.83-2.34a49.22,49.22,0,0,1,10.49-23.67c6.63-8.22,18.25-18.84,35.91-22.74a31.86,31.86,0,0,1,26.67,6.17c6,4.83,10,10.17,11.74,15.87a5.47,5.47,0,0,1,.21,1.61v73.5A17,17,0,0,0,172,427h37.07a4.12,4.12,0,0,0,4.12-4.12,32.92,32.92,0,0,0-8-20.2V356.88c8.22,7.31,23.81,17.63,50,22.93a4.12,4.12,0,1,0,1.63-8.08c-29.13-5.91-44-18.46-49.59-24.38,7.75-5.58,23.24-20.19,24-48.28a4.12,4.12,0,1,0-8.24-.21c-.8,31.63-22.79,43.36-23.76,43.86l-.12.08a3.66,3.66,0,0,0-.49.31l-.2.17c-.12.11-.24.22-.35.34l-.18.21a3.13,3.13,0,0,0-.29.42,1.74,1.74,0,0,0-.11.18,3.31,3.31,0,0,0-.29.67.53.53,0,0,0,0,.12,3.9,3.9,0,0,0-.14.59c0,.09,0,.18,0,.27s0,.21,0,.31v57.95a4.12,4.12,0,0,0,1.2,2.91,24,24,0,0,1,6.24,11.52H172a8.71,8.71,0,0,1-8.7-8.7v-73.5a13.46,13.46,0,0,0-.59-4.06c-2.27-7.3-7.13-14-14.43-19.85a39.73,39.73,0,0,0-33.63-7.8c-20,4.42-33.09,16.37-40.55,25.62a57.13,57.13,0,0,0-12.66,31.57v0a3.82,3.82,0,0,0,0,.89,51.63,51.63,0,0,0,.32,9.63c1.68,12.85,7.66,24.3,17.78,34a4.25,4.25,0,0,1-4.39,7.05A74.66,74.66,0,0,1,45.69,394.3a60.76,60.76,0,0,1-16-39.12c-2.56-61.58,53.12-99.27,77.17-112.62A88.13,88.13,0,0,0,128,226c37-39.1,83.27-45,83.8-45,71.51-9.53,108.26,21,137.09,50.31,16.71,17,36.17,26.06,49.54,30.65a109,109,0,0,0,30.42,5.57c31,1.4,45.65,14.6,52.48,25.42a6.79,6.79,0,0,1-6.19,10.35c-30.87-2-68.51,2.89-83.27,5.09a21.19,21.19,0,0,0-14.55,9.4c-16.89,25.77-46.53,42.61-46.83,42.78a4.12,4.12,0,0,0-2.1,3.6v40.77a4.13,4.13,0,0,0,2,3.52,14.32,14.32,0,0,1,6.42,10.38H304.56a8.71,8.71,0,0,1-8.7-8.7V346.39a4.13,4.13,0,0,0-8.25,0v63.68A17,17,0,0,0,304.56,427H341.1a4.11,4.11,0,0,0,4.1-3.76c.05-.56,1-13.1-8.56-20.55V366.46c7.37-4.47,32.06-20.54,47.58-44.22a12.93,12.93,0,0,1,8.87-5.76c14.49-2.17,51.44-7,81.51-5a15,15,0,0,0,13.71-23C480.43,276,463.79,260.78,429.22,259.22Z"></path><path d="M449.69,288.05a3.71,3.71,0,0,0,.74.07,4.13,4.13,0,0,0,.73-8.19l-7-1.27a4.12,4.12,0,0,0-1.47,8.11Z"></path></svg>