<svg xmlns="http://www.w3.org/2000/svg" data-name="Layer 2" viewBox="0 0 512 512" x="0px" y="0px"><title>tyrannosaurus_extinct wildlife animal dinosaur</title><path d="M144.87,451.08q4.73.38,9.48.38c35.2,0,71.51-15.85,108.17-47.24V418A33.49,33.49,0,0,0,296,451.46h58.18a11.74,11.74,0,0,0,11.73-11.73,30.46,30.46,0,0,0-26.46-30.15c10.52-8,21.12-23.48,18.95-53,3.32-3,11.2-10.2,19.84-19,6.21,16.38,8.07,37.83-11.29,55.92a4.33,4.33,0,0,0,3,7.5h9.34a22.27,22.27,0,0,1,22.25,22.25,3.24,3.24,0,0,1-3.24,3.24h-6.9a4.34,4.34,0,0,0,0,8.67h6.9a11.92,11.92,0,0,0,11.91-11.91,31,31,0,0,0-30.4-30.92c17.27-22.14,11.37-46.87,5.05-61.58,4.92-5.25,9.78-10.76,13.92-16.09a4.33,4.33,0,0,0-6.85-5.31c-10.63,13.68-26.76,29.17-35.22,37-7-22.34-34-31-35.27-31.35a4.33,4.33,0,0,0-2.56,8.28c.29.09,29,9.23,30.73,31.78,0,0,0,0,0,0v0c4.57,49.24-28.58,54-30,54.21a4.33,4.33,0,0,0,.51,8.64h15.38a21.77,21.77,0,0,1,21.74,21.74,3.05,3.05,0,0,1-3.05,3.06H296A24.81,24.81,0,0,1,271.19,418v-23.4a4.34,4.34,0,0,0-7.26-3.21c-40.52,36.92-80.29,54.11-118.22,51C98.53,438.65,70.5,404,70.23,403.68l-.18-.21c-.29-.32-29.11-33-13.69-78.05a79.13,79.13,0,0,1,27.4-38.19,2.8,2.8,0,0,1,3.51,0,2.88,2.88,0,0,1,1,3.42c-10.38,27.89-3.78,47.11,3.59,58.32a55.62,55.62,0,0,0,51.68,24.6c14.79-1.32,29.23-8.67,41.76-21.27a97.63,97.63,0,0,0,18.39-26.17,185.64,185.64,0,0,1,43.83-57.73A159.65,159.65,0,0,1,299,238.13c18.8-6.91,35-16.23,48.15-27.72a4.34,4.34,0,0,0-5.7-6.54C329.07,214.67,313.78,223.45,296,230a168.44,168.44,0,0,0-54.2,31.94,194.28,194.28,0,0,0-45.87,60.41,88.59,88.59,0,0,1-16.74,23.85c-11.23,11.29-23.47,17.6-36.38,18.76a47,47,0,0,1-43.67-20.73c-9.11-13.87-10-30.87-2.7-50.53a11.64,11.64,0,0,0-17.9-13.36,88.85,88.85,0,0,0-30.36,42.29c-16.76,48.94,13.06,84,15.35,86.56C65.64,411.82,94.76,447,144.87,451.08Z"></path><path d="M310.34,112.34c12.26,6.13,22.29,11.9,29,16.7a6.65,6.65,0,0,1-.17,11c-5.52,3.69-12.93,5.84-22,6.4a15.48,15.48,0,0,0-12.35,7.48,14.79,14.79,0,0,0-.79,14c.11.25.22.49.34.74a24.52,24.52,0,0,0,19.92,13.78l40.53,3.48a42.56,42.56,0,0,0,5.53.32c6.27,0,16.54-1.12,24.63-7.42,6.6-5.14,10.45-12.61,11.44-22.22a4.33,4.33,0,1,0-8.62-.89c-.74,7.14-3.47,12.61-8.11,16.24-9.32,7.29-23.59,5.4-23.78,5.37h-.13l-.12,0L325,173.74a15.81,15.81,0,0,1-12.85-8.89l-.28-.6a6.26,6.26,0,0,1,.34-5.89,6.85,6.85,0,0,1,5.45-3.29c10.65-.65,19.5-3.29,26.31-7.84a15.31,15.31,0,0,0,.38-25.25c-7.19-5.13-17.34-11-30.17-17.4a16.84,16.84,0,0,1-8.28-20.87,13.7,13.7,0,0,1,18-8A120.62,120.62,0,0,1,345.83,86.6a18.5,18.5,0,0,0,16.5,2c11.07-3.9,32.13-7.95,48.83,8.75l.29.27c.11.09,10.51,9.11,16,33,5.16,22.33,7,62.43-13.65,126.71a4.34,4.34,0,0,0,1.93,5.06c.28.16,27.25,16.4,25.64,48.54a8.14,8.14,0,0,1-8.14,7.75c-4.52,0-6.42-1.29-7.55-5.11C420.9,297.31,410.41,291.21,408,290L391.8,278.62a16,16,0,0,1-6.84-12.5c-.29-6.58,0-11.89.73-15.35a4.34,4.34,0,0,0-8.47-1.88c-.94,4.26-1.26,10.18-.92,17.62a24.65,24.65,0,0,0,10.51,19.21l16.5,11.58a4.24,4.24,0,0,0,.68.39l.05,0c.37.17,9.22,4.36,13.34,18.34,2.22,7.51,7.56,11.32,15.9,11.32a16.79,16.79,0,0,0,16.77-16c1.55-30.94-19.12-48.85-27-54.5q2.35-7.51,4.32-14.6c9.49,6.16,24.71,18,31.81,34.43a12.82,12.82,0,0,1-.3,10.83,4.34,4.34,0,1,0,7.77,3.86,21.51,21.51,0,0,0,.49-18.14c-8.43-19.47-26.08-32.8-37.43-39.76C456.6,128.23,420.54,94,417.17,91.12c-20.8-20.66-47.28-14.35-57.72-10.67a9.87,9.87,0,0,1-8.84-1.09,130,130,0,0,0-23.46-11.75,22.39,22.39,0,0,0-29.36,13.13A25.53,25.53,0,0,0,310.34,112.34Z"></path><path d="M377,104.3a4.34,4.34,0,0,0,0,8.68h8.92a4.34,4.34,0,0,0,0-8.68Z"></path></svg>