<svg xmlns="http://www.w3.org/2000/svg" data-name="Layer 2" viewBox="0 0 512 512" x="0px" y="0px"><title>velociraptor extinct wildlife animal dinosaur</title><path d="M204.67,437.52a9.39,9.39,0,0,0,6.5,16.18H236a22.17,22.17,0,0,0,20.58-14.14l12.72-32.72a22.88,22.88,0,0,0-3.13-22l-1.68-2.2a4.33,4.33,0,1,0-6.89,5.26l1.68,2.2a14.14,14.14,0,0,1,1.93,13.64l-12.72,32.74A13.45,13.45,0,0,1,236,445H211.17a.68.68,0,0,1-.69-.48.6.6,0,0,1,.15-.73c9.81-9.31,24.69-16.94,24.84-17a4.34,4.34,0,0,0,2.37-3.87V396.61a22.4,22.4,0,0,0-8.9-17.89c-3.73-2.8-8.25-5.88-13.43-9.16a20.88,20.88,0,0,1-9.61-15.65,263.91,263.91,0,0,1-.69-37.52,218.75,218.75,0,0,0,40.6,10.38,4.33,4.33,0,1,0,1.31-8.57,213.16,213.16,0,0,1-46.73-12.9c7.25-4.45,11.58-10.21,12.89-17.21,4-21-22.2-44.62-23.31-45.62A4.34,4.34,0,0,0,184.2,249c6.58,5.86,23.1,24,20.56,37.54-1.19,6.35-6.71,11.39-16.41,15l0,0-.07,0c-20,8.1-54,3.54-54.39,3.49a4.35,4.35,0,0,0-4.91,3.91L127.2,328a4.33,4.33,0,0,1-1.91,3.21,4.11,4.11,0,0,1-3.55.64,4.92,4.92,0,0,1-3-2.94,66.15,66.15,0,0,1-5.14-22.66,13.32,13.32,0,0,1,11.66-13.71l27.86-3.37.17,0,.17,0,5.22-1.06a12,12,0,0,0,7.64-18.36l-3.86-5.88a4.34,4.34,0,0,0-7.25,4.77l3.87,5.88a3.33,3.33,0,0,1-2.12,5.09l-5.06,1-27.69,3.35a22,22,0,0,0-19.27,22.68,74.63,74.63,0,0,0,5.8,25.64,13.56,13.56,0,0,0,8.54,7.91,12.32,12.32,0,0,0,3.56.52,13.11,13.11,0,0,0,7.32-2.28,13,13,0,0,0,5.69-9.61l1.33-14.67c10.11,1,34.91,2.52,52.58-3.89,2.31,1,4.63,2,7,2.92a272.37,272.37,0,0,0,.57,41.62,29.54,29.54,0,0,0,13.6,22.11c5,3.16,9.32,6.11,12.88,8.77a13.73,13.73,0,0,1,5.42,10.95v23.73C224.31,423,213.05,429.58,204.67,437.52Z"></path><path d="M64.41,291.88a12.74,12.74,0,0,0,17.43,8.54,12.88,12.88,0,0,0,7.55-10.28C90,284.9,93,277.33,103.57,271a4.33,4.33,0,0,0-4.43-7.45c-14.36,8.53-17.67,19.66-18.36,25.54a4.11,4.11,0,0,1-2.41,3.35A3.94,3.94,0,0,1,75,292.4a4,4,0,0,1-2.16-2.66A107.66,107.66,0,0,1,70,272.56a17.67,17.67,0,0,1,9.18-17.11,257.29,257.29,0,0,1,25.06-11.89,133.1,133.1,0,0,0,23.5,27.58,4.33,4.33,0,0,0,5.79-6.45c-56.69-50.88-43.64-126.8-30.82-167.54A42.89,42.89,0,0,1,143.7,67h52.07a8.29,8.29,0,0,1,6,2.51,8.08,8.08,0,0,1,2.33,5.85c-.17,8.13-2.11,19.48-10.44,27.42-7.44,7.09-18.89,10.47-34,10.06a4.33,4.33,0,0,0-3,1.07c-.34.29-33.39,29.68-18.69,68a37.62,37.62,0,0,0,38,23.8,115.23,115.23,0,0,0,27.57-5.18c21.67-7.35,56.61-12.92,109.67,23.42a51.67,51.67,0,0,0,29.28,9.16,50.65,50.65,0,0,0,32.95-11.94A71.85,71.85,0,0,0,390.89,202a86,86,0,0,0,10-55.81c-3.58-22.66-15.09-36.29-24.11-43.74-12.34-10.17-28.92-13-43.28-7.49a44.93,44.93,0,0,0-17.3,12.13c1.64-9.2,5.31-16.75,11-22.53,13.37-13.64,33.77-13.2,34-13.2h.15c31.33,0,54.29,15.16,68.26,45.08,10.68,22.86,11.87,46.17,11.88,46.4,0,.07,0,.15,0,.22,3.74,38.69-9.31,73.8-38.78,104.34a184.57,184.57,0,0,1-46.09,34.75c-3.93,1.83-8,3.54-12.05,5.13l2-6.74a4.33,4.33,0,1,0-8.29-2.52l-4.55,15c-7.85,21.14-7.38,44.69-7.36,45.68a4.35,4.35,0,0,0,3.29,4.11c3.5.87,8.85,3.13,15.47,6.53a30.65,30.65,0,0,1,16,32.93l-6,31.22a14.27,14.27,0,0,1-14,11.55H322.24a.65.65,0,0,1-.68-.49.61.61,0,0,1,.21-.78,170.48,170.48,0,0,1,18.46-13.18,4.33,4.33,0,0,0,2.09-3.71V409.75a32.83,32.83,0,0,0-12.43-25.88,63,63,0,0,0-10.52-6.66,31.23,31.23,0,0,0-12.21-3.41,83.4,83.4,0,0,1-19.67-3.92A23.86,23.86,0,0,1,271,346.1c.28-6.59.87-13.65,1.73-21h0c.08-.68,3.05-23.45,11.44-35.27a4.34,4.34,0,1,0-7.08-5c-9.74,13.74-12.85,38.22-13,39.26h0c-.88,7.54-1.48,14.81-1.78,21.62a32.57,32.57,0,0,0,22.56,32.42,92.38,92.38,0,0,0,21.73,4.31,22.78,22.78,0,0,1,8.84,2.47,54.59,54.59,0,0,1,9.07,5.74,24.21,24.21,0,0,1,9.15,19.08v14.71a173.38,173.38,0,0,0-17.45,12.65,9.4,9.4,0,0,0,6,16.59h18.88a23,23,0,0,0,22.51-18.58l6-31.21a39.39,39.39,0,0,0-20.52-42.3,112.75,112.75,0,0,0-14-6.23c.14-6.63,1-22.76,6.17-37.6,6.48-2.29,12.87-4.91,19.07-7.8,1-.49,25.13-12.3,48.41-36.34,31-32,45.29-70.51,41.38-111.31A145.63,145.63,0,0,0,437.57,113C422.3,80.11,396,62.71,361.4,62.69c-1.81,0-24.53-.31-40.31,15.72-10.52,10.68-15.36,25.91-14.41,45.26a4.33,4.33,0,0,0,8.41,1.25c.06-.15,5.82-15.79,21.57-21.88,11.43-4.43,24.71-2.09,34.63,6.09,7.87,6.49,17.91,18.42,21.07,38.41a77.36,77.36,0,0,1-9,50.16,63.33,63.33,0,0,1-13.62,16.89,42,42,0,0,1-27.31,9.86,43,43,0,0,1-24.38-7.64c-56.27-38.54-93.92-32.43-117.35-24.48a107.65,107.65,0,0,1-25.48,4.75A28.89,28.89,0,0,1,146,178.82c-11.19-29.2,9.73-52.07,15.11-57.31,16.71.15,29.62-4,38.48-12.48,10.48-10,12.92-23.75,13.12-33.52a16.71,16.71,0,0,0-4.81-12.1,16.91,16.91,0,0,0-12.16-5.11H143.7A51.53,51.53,0,0,0,94.41,94.55c-10.75,34.16-21.57,92,5.35,141.46A266.61,266.61,0,0,0,75,247.83a26.33,26.33,0,0,0-13.69,25.49A116.68,116.68,0,0,0,64.41,291.88Z"></path><path d="M144,87.85l8.92-.06a4.34,4.34,0,1,0,0-8.67l-8.92.06a4.34,4.34,0,0,0,0,8.67Z"></path></svg>