<?xml version="1.0" encoding="UTF-8" standalone="no"?>
<svg
   xmlns:dc="http://purl.org/dc/elements/1.1/"
   xmlns:cc="http://creativecommons.org/ns#"
   xmlns:rdf="http://www.w3.org/1999/02/22-rdf-syntax-ns#"
   xmlns:svg="http://www.w3.org/2000/svg"
   xmlns="http://www.w3.org/2000/svg"
   xmlns:sodipodi="http://sodipodi.sourceforge.net/DTD/sodipodi-0.dtd"
   xmlns:inkscape="http://www.inkscape.org/namespaces/inkscape"
   version="1.1"
   id="svg2985"
   height="255.73582"
   width="255.73582"
   sodipodi:docname="rawrs.svg"
   inkscape:version="1.0.1 (3bc2e813f5, 2020-09-07)"
   inkscape:export-filename="C:\Users\wilkie\Documents\rawrs_256x256.png"
   inkscape:export-xdpi="192.2"
   inkscape:export-ydpi="192.2">
  <sodipodi:namedview
     pagecolor="#ffffff"
     bordercolor="#666666"
     borderopacity="1"
     objecttolerance="10"
     gridtolerance="10"
     guidetolerance="10"
     inkscape:pageopacity="0"
     inkscape:pageshadow="2"
     inkscape:window-width="1920"
     inkscape:window-height="1057"
     id="namedview4880"
     showgrid="false"
     inkscape:object-nodes="false"
     inkscape:zoom="1.3106049"
     inkscape:cx="41.530528"
     inkscape:cy="173.55246"
     inkscape:window-x="-8"
     inkscape:window-y="1064"
     inkscape:window-maximized="1"
     inkscape:current-layer="svg2985"
     fit-margin-top="0"
     fit-margin-left="0"
     fit-margin-right="0"
     fit-margin-bottom="0"
     inkscape:document-rotation="0" />
  <defs
     id="defs2987" />
  <metadata
     id="metadata2990">
    <rdf:RDF>
      <cc:Work
         rdf:about="">
        <dc:format>image/svg+xml</dc:format>
        <dc:type
           rdf:resource="http://purl.org/dc/dcmitype/StillImage" />
        <dc:title></dc:title>
      </cc:Work>
    </rdf:RDF>
  </metadata>
  <circle
     style="fill:#ffffff;fill-opacity:1"
     id="path855"
     cx="127.1328"
     cy="120.55502"
     r="108.34692" />
  <path
     id="path842"
     style="fill:#004677;fill-opacity:1;stroke-width:0.937934"
     d="M 127.78921,6.452672 A 114.32499,114.32499 0 0 0 13.543435,120.77607 114.32499,114.32499 0 0 0 127.86684,235.10162 114.32499,114.32499 0 0 0 242.19239,120.77607 114.32499,114.32499 0 0 0 127.86684,6.452672 a 114.32499,114.32499 0 0 0 -0.0776,0 z m -0.17683,10.340105 a 103.98405,103.98405 0 0 1 0.25446,0 A 103.98405,103.98405 0 0 1 231.85229,120.77607 103.98405,103.98405 0 0 1 127.86684,224.76152 103.98405,103.98405 0 0 1 23.883541,120.77607 103.98405,103.98405 0 0 1 127.61238,16.792777 Z" />
  <g
     style="font-style:normal;font-weight:normal;font-size:151.83480835px;line-height:125%;font-family:'Cinzel Decorative Bold';-inkscape-font-specification:'Cinzel Decorative Bold';letter-spacing:0px;word-spacing:0px;fill:#488e9c;fill-opacity:1;stroke:none"
     id="text2993"
     transform="translate(-3.1354137,-416.10707)" />
  <path
     style="fill:#006680;fill-rule:evenodd;stroke:none;stroke-width:1.65017px;stroke-linecap:butt;stroke-linejoin:miter;stroke-opacity:1"
     d="m 216.31354,243.56817 c 1.42175,-38.42547 2.08166,-71.47725 -5.72573,-79.24661 -7.80738,-7.76936 -41.14611,-0.15418 -32.44636,11.83775 27.76681,38.27468 25.44805,44.93926 38.17209,67.40886 z"
     id="path4697"
     inkscape:connector-curvature="0"
     sodipodi:nodetypes="czsc" />
  <path
     style="fill:#006680;fill-rule:evenodd;stroke:none;stroke-width:1.65017px;stroke-linecap:butt;stroke-linejoin:miter;stroke-opacity:1"
     d="m 125.1818,258.24562 c 5.56786,-40.31271 19.76984,-52.30479 18.41584,-62.50542 -2.43478,-18.34268 -29.65963,-22.2676 -35.27142,-4.35304 -4.07643,13.0132 13.81269,29.99186 16.85558,66.85846 z"
     id="path4699"
     inkscape:connector-curvature="0"
     sodipodi:nodetypes="cssc" />
  <path
     style="fill:#006680;fill-rule:evenodd;stroke:none;stroke-width:1.65017px;stroke-linecap:butt;stroke-linejoin:miter;stroke-opacity:1"
     d="m 22.693361,218.42239 c 27.415172,-34.17864 42.393232,-30.0386 47.829062,-46.40145 2.853006,-8.58837 -17.681745,-33.47244 -32.646285,-17.70723 -8.971732,9.45177 -7.953885,46.85999 -15.182777,64.10868 z"
     id="path4701"
     inkscape:connector-curvature="0"
     sodipodi:nodetypes="cssc" />
  <path
     style="fill:#006680;fill-rule:evenodd;stroke:none;stroke-width:1.65017px;stroke-linecap:butt;stroke-linejoin:miter;stroke-opacity:1"
     d="m 204.74815,150.21875 c -1.70258,-6.12785 -1.49179,-11.80558 -8.17416,-19.10481 -12.29732,-1.39452 -21.88927,4.13026 -30.04364,13.33168 -0.33427,7.14925 2.89629,12.67927 6.75636,17.92335 8.43169,-3.36151 6.38989,-9.74229 10.85508,-11.16215 9.58154,-3.04675 5.86554,5.09359 20.60636,-0.98807 z"
     id="path4705"
     inkscape:connector-curvature="0"
     sodipodi:nodetypes="ccccsc" />
  <path
     style="fill:#006680;fill-rule:evenodd;stroke:none;stroke-width:1.65017px;stroke-linecap:butt;stroke-linejoin:miter;stroke-opacity:1"
     d="m 142.79846,177.87336 c 0.70775,-6.32046 3.02252,-11.50922 -0.45245,-20.77516 -10.88805,-5.88375 -21.84889,-4.33852 -32.84843,1.15426 -2.97861,6.50778 -2.04566,12.84398 -0.42194,19.14986 9.07699,0.0286 9.56441,-6.65316 14.2369,-6.30375 10.02627,0.74984 3.54042,6.91481 19.48592,6.77479 z"
     id="path4705-9"
     inkscape:connector-curvature="0"
     sodipodi:nodetypes="ccccsc" />
  <path
     style="fill:#006680;fill-rule:evenodd;stroke:none;stroke-width:1.65017px;stroke-linecap:butt;stroke-linejoin:miter;stroke-opacity:1"
     d="m 77.740582,158.0177 c 3.836617,-5.07239 8.476888,-8.35095 10.222005,-18.09202 -7.043351,-14.26647 -17.064995,-17.52412 -28.830129,-15.78521 -5.884681,4.07356 -8.318853,9.99746 -10.143687,16.24812 7.789113,4.6607 12.503087,0.47902 16.341666,3.16594 8.236839,5.76564 -1.370227,6.43924 12.410111,14.46313 z"
     id="path4705-9-3"
     inkscape:connector-curvature="0"
     sodipodi:nodetypes="ccccsc" />
  <path
     style="fill:#006680;fill-rule:evenodd;stroke:none;stroke-width:1.65017px;stroke-linecap:butt;stroke-linejoin:miter;stroke-opacity:1"
     d="m 166.11969,136.63848 c 4.3058,-2.62692 4.97553,-7.42988 8.63737,-9.34507 6.60583,-3.4551 11.24764,-2.43786 14.83402,-5.33291 0.003,-6.80411 -4.83404,-12.57259 -11.60754,-17.92671 l -24.45776,14.10399 c 2.96963,6.76905 3.95892,14.50882 12.59391,18.5007 z"
     id="path4737"
     inkscape:connector-curvature="0"
     sodipodi:nodetypes="cscccc" />
  <path
     style="fill:#006680;fill-rule:evenodd;stroke:none;stroke-width:1.8195px;stroke-linecap:butt;stroke-linejoin:miter;stroke-opacity:1"
     d="m 65.340945,114.46544 c 4.718746,3.12451 9.961615,1.72138 13.647374,4.51556 6.649099,5.0408 7.786346,10.06413 12.441999,12.36265 6.983049,-2.92244 10.629352,-10.18131 12.940672,-19.17518 L 78.407167,94.06901 c -5.550414,5.84413 -13.027282,10.14918 -13.066104,20.39647 z"
     id="path4737-1"
     inkscape:connector-curvature="0"
     sodipodi:nodetypes="cscccc" />
  <path
     style="fill:#006680;fill-rule:evenodd;stroke:none;stroke-width:1.65017px;stroke-linecap:butt;stroke-linejoin:miter;stroke-opacity:1"
     d="m 176.3834,95.68039 c -1.14116,0.004 -26.71988,16.41577 -26.71988,16.41577 -17.28915,-28.521243 -29.55795,-17.92699 -41.67351,-6.1393 L 81.416316,86.819822 C 85.293709,71.513136 93.1105,59.662566 103.80383,52.993302 c 16.05124,6.663372 30.20285,8.301048 49.79719,6.079484 7.7578,8.873841 19.42787,19.615492 22.78238,36.607604 z"
     id="path4754"
     inkscape:connector-curvature="0"
     sodipodi:nodetypes="ccccccc" />
  <path
     id="path4756"
     style="fill:#006680;fill-rule:evenodd;stroke:none;stroke-width:1.65017px;stroke-linecap:butt;stroke-linejoin:miter;stroke-opacity:1"
     d="m 127.61238,23.417345 a 103.98405,103.98405 0 0 0 -18.42674,1.692802 l -5.35659,20.309304 c 22.52209,6.606082 36.42914,5.553442 48.90579,3.226027 L 147.8915,25.364606 a 103.98405,103.98405 0 0 0 -20.02466,-1.947261 103.98405,103.98405 0 0 0 -0.25446,0 z" />
  <path
     style="fill:#006680;fill-rule:evenodd;stroke:none;stroke-width:1.65017px;stroke-linecap:butt;stroke-linejoin:miter;stroke-opacity:1"
     d="m 126.54715,144.7324 c 7.32306,-0.0538 12.59656,1.637 15.74855,4.9149 5.54945,-21.09914 -3.7633,-30.53283 -15.24978,-35.5965 -19.79475,8.82831 -19.9556,24.75663 -17.09487,36.82786 5.18488,-3.36014 10.02419,-6.09796 16.5961,-6.14626 z"
     id="path4760"
     inkscape:connector-curvature="0"
     sodipodi:nodetypes="scccs" />
</svg>
