<?xml version="1.0" encoding="UTF-8" standalone="no"?>
<svg
   xmlns:dc="http://purl.org/dc/elements/1.1/"
   xmlns:cc="http://creativecommons.org/ns#"
   xmlns:rdf="http://www.w3.org/1999/02/22-rdf-syntax-ns#"
   xmlns:svg="http://www.w3.org/2000/svg"
   xmlns="http://www.w3.org/2000/svg"
   xmlns:sodipodi="http://sodipodi.sourceforge.net/DTD/sodipodi-0.dtd"
   xmlns:inkscape="http://www.inkscape.org/namespaces/inkscape"
   version="1.1"
   id="svg2985"
   height="255.73582"
   width="255.73582"
   sodipodi:docname="logo_icon.svg"
   inkscape:version="0.91 r13725"
   inkscape:export-filename="C:\Users\wilkie\Documents\RAWRS\icon_64x64.png"
   inkscape:export-xdpi="22.523243"
   inkscape:export-ydpi="22.523243">
  <sodipodi:namedview
     pagecolor="#ffffff"
     bordercolor="#666666"
     borderopacity="1"
     objecttolerance="10"
     gridtolerance="10"
     guidetolerance="10"
     inkscape:pageopacity="0"
     inkscape:pageshadow="2"
     inkscape:window-width="1920"
     inkscape:window-height="1057"
     id="namedview4880"
     showgrid="false"
     inkscape:object-nodes="false"
     inkscape:zoom="2.6212098"
     inkscape:cx="127.74154"
     inkscape:cy="157.98042"
     inkscape:window-x="-8"
     inkscape:window-y="1072"
     inkscape:window-maximized="1"
     inkscape:current-layer="svg2985"
     fit-margin-top="0"
     fit-margin-left="0"
     fit-margin-right="0"
     fit-margin-bottom="0" />
  <defs
     id="defs2987" />
  <metadata
     id="metadata2990">
    <rdf:RDF>
      <cc:Work
         rdf:about="">
        <dc:format>image/svg+xml</dc:format>
        <dc:type
           rdf:resource="http://purl.org/dc/dcmitype/StillImage" />
        <dc:title></dc:title>
      </cc:Work>
    </rdf:RDF>
  </metadata>
  <g
     style="font-style:normal;font-weight:normal;font-size:151.83480835px;line-height:125%;font-family:'Cinzel Decorative Bold';-inkscape-font-specification:'Cinzel Decorative Bold';letter-spacing:0px;word-spacing:0px;fill:#488e9c;fill-opacity:1;stroke:none"
     id="text2993"
     transform="translate(-3.1354137,-416.10707)" />
  <path
     style="fill:#006680;fill-rule:evenodd;stroke:none;stroke-width:1.5441345px;stroke-linecap:butt;stroke-linejoin:miter;stroke-opacity:1"
     d="m 12.909631,105.35972 c 23.728383,27.04824 44.521358,49.95198 54.824659,50.21851 10.303302,0.26653 28.083949,-26.33902 14.459957,-28.90398 C 38.71064,118.48761 36.004503,112.46457 12.909631,105.35972 Z"
     id="path4697"
     inkscape:connector-curvature="0"
     sodipodi:nodetypes="czsc" />
  <path
     style="fill:#006680;fill-rule:evenodd;stroke:none;stroke-width:1.5441345px;stroke-linecap:butt;stroke-linejoin:miter;stroke-opacity:1"
     d="m 85.608083,28.107836 c 16.825307,34.162019 12.10759,50.903476 18.506247,58.098862 11.50601,12.938682 34.6634,1.703508 29.61797,-15.123077 C 130.06727,58.860733 107.2995,55.083574 85.608083,28.107836 Z"
     id="path4699"
     inkscape:connector-curvature="0"
     sodipodi:nodetypes="cssc" />
  <path
     style="fill:#006680;fill-rule:evenodd;stroke:none;stroke-width:1.5441345px;stroke-linecap:butt;stroke-linejoin:miter;stroke-opacity:1"
     d="M 185.91984,5.2247696 C 182.5968,46.089828 168.81778,50.735958 173.18588,66.267687 175.47855,74.419818 204.4424,82.936192 207.77243,62.8707 209.7689,50.840767 189.36286,22.383341 185.91984,5.2247696 Z"
     id="path4701"
     inkscape:connector-curvature="0"
     sodipodi:nodetypes="cssc" />
  <path
     style="fill:#006680;fill-rule:evenodd;stroke:none;stroke-width:1.5441345px;stroke-linecap:butt;stroke-linejoin:miter;stroke-opacity:1"
     d="m 78.334667,159.91628 c 5.05503,3.14083 8.507321,7.18406 17.733631,7.9763 9.351492,-6.83138 12.455942,-16.71322 12.240942,-28.21596 -4.29963,-5.13475 -10.02804,-6.89582 -16.008759,-8.06113 -3.67616,7.65711 1.772728,10.75719 -0.402375,14.56407 -4.66738,8.1689 -7.26631,0.20901 -13.563439,13.73672 z"
     id="path4705"
     inkscape:connector-curvature="0"
     sodipodi:nodetypes="ccccsc" />
  <path
     style="fill:#006680;fill-rule:evenodd;stroke:none;stroke-width:1.5441345px;stroke-linecap:butt;stroke-linejoin:miter;stroke-opacity:1"
     d="m 114.10322,99.63434 c 2.76604,5.26945 3.6931,10.50459 11.24533,15.86334 11.5237,-1.14989 19.20795,-8.09544 24.85208,-18.120533 -1.10433,-6.605508 -5.15012,-11.02679 -9.71536,-15.062338 -7.04964,4.737918 -3.9234,10.171855 -7.72779,12.351333 -8.16352,4.676768 -6.36999,-3.502315 -18.65426,4.968198 z"
     id="path4705-9"
     inkscape:connector-curvature="0"
     sodipodi:nodetypes="ccccsc" />
  <path
     style="fill:#006680;fill-rule:evenodd;stroke:none;stroke-width:1.5441345px;stroke-linecap:butt;stroke-linejoin:miter;stroke-opacity:1"
     d="m 174.93529,80.90541 c -0.31337,5.943055 -2.19024,10.91731 1.56559,19.38173 12.94003,7.36288 22.41512,4.63208 30.62115,-2.8853 2.42437,-6.242993 1.20431,-12.110476 -0.65935,-17.911666 -8.48068,0.472658 -9.94106,6.185474 -14.32497,6.116138 -9.40707,-0.148829 -2.3149,-5.708956 -17.20241,-4.700882 z"
     id="path4705-9-3"
     inkscape:connector-curvature="0"
     sodipodi:nodetypes="ccccsc" />
  <path
     style="fill:#006680;fill-rule:evenodd;stroke:none;stroke-width:1.5441345px;stroke-linecap:butt;stroke-linejoin:miter;stroke-opacity:1"
     d="m 116.87378,144.61635 c -2.06097,4.24607 -0.15882,8.36595 -2.07272,11.72593 -3.45271,6.06146 -7.62153,7.6086 -8.98049,11.70181 3.43941,5.35802 10.1652,7.45255 18.20589,8.24133 l 12.12003,-23.47481 c -5.7618,-3.82679 -10.45565,-9.41948 -19.27271,-8.19426 z"
     id="path4737"
     inkscape:connector-curvature="0"
     sodipodi:nodetypes="cscccc" />
  <path
     style="fill:#006680;fill-rule:evenodd;stroke:none;stroke-width:1.70258546px;stroke-linecap:butt;stroke-linejoin:miter;stroke-opacity:1"
     d="m 207.38413,108.1557 c -5.2955,0.053 -8.6229,3.88991 -12.94465,3.65723 -7.79649,-0.41974 -11.3121,-3.71641 -16.12559,-3.05627 -3.87928,5.92687 -2.89853,13.46461 0.0268,21.64689 l 29.6134,0.41132 c 1.2368,-7.43986 4.77373,-14.6972 -0.56996,-22.65917 z"
     id="path4737-1"
     inkscape:connector-curvature="0"
     sodipodi:nodetypes="cscccc" />
  <path
     style="fill:#006680;fill-rule:evenodd;stroke:none;stroke-width:1.5441345px;stroke-linecap:butt;stroke-linejoin:miter;stroke-opacity:1"
     d="m 131.17779,180.94573 c 0.88242,-0.60134 12.09923,-26.73429 12.09923,-26.73429 28.35581,13.03726 32.30833,-1.60712 35.51628,-17.09606 l 30.63014,0.89566 c 5.022,13.89594 5.17855,27.17929 0.38871,37.95562 -15.93398,3.25334 -27.76021,9.40537 -41.78073,21.40251 -10.66581,-2.8089 -25.34307,-5.01373 -36.85363,-16.42344 z"
     id="path4754"
     inkscape:connector-curvature="0"
     sodipodi:nodetypes="ccccccc" />
  <path
     style="fill:#006680;fill-rule:evenodd;stroke:none;stroke-width:1.5441345px;stroke-linecap:butt;stroke-linejoin:miter;stroke-opacity:1"
     d="m 174.17132,204.99686 c 8.44883,-8.34658 18.67463,-16.45727 39.59345,-23.14838 l 12.69834,36.24208 c -10.15035,1.17219 -17.07929,7.85438 -24.22613,14.16385 z"
     id="path4756"
     inkscape:connector-curvature="0"
     sodipodi:nodetypes="ccccc" />
  <path
     style="fill:#006680;fill-rule:evenodd;stroke:none;stroke-width:1.5441345px;stroke-linecap:butt;stroke-linejoin:miter;stroke-opacity:1"
     d="m 208.48433,238.79067 c 11.42527,-10.93911 15.43109,-9.9072 21.61995,-12.39754 l 6.13635,16.30475 -15.72892,9.19593 z"
     id="path4758"
     inkscape:connector-curvature="0"
     sodipodi:nodetypes="ccccc" />
  <path
     style="fill:#006680;fill-rule:evenodd;stroke:none;stroke-width:1.5441345px;stroke-linecap:butt;stroke-linejoin:miter;stroke-opacity:1"
     d="m 144.07732,116.7961 c -5.64708,3.88199 -10.62072,5.33704 -14.78245,4.44964 6.7638,19.26189 18.92825,21.68929 30.48561,19.58999 10.71121,-17.22245 2.48292,-29.65118 -6.06437,-37.50615 -2.2562,5.32311 -4.57093,9.98271 -9.63879,13.46652 z"
     id="path4760"
     inkscape:connector-curvature="0"
     sodipodi:nodetypes="scccs" />
</svg>
