<?xml version="1.0" encoding="UTF-8" standalone="no"?>
<svg
   xmlns:dc="http://purl.org/dc/elements/1.1/"
   xmlns:cc="http://creativecommons.org/ns#"
   xmlns:rdf="http://www.w3.org/1999/02/22-rdf-syntax-ns#"
   xmlns:svg="http://www.w3.org/2000/svg"
   xmlns="http://www.w3.org/2000/svg"
   xmlns:sodipodi="http://sodipodi.sourceforge.net/DTD/sodipodi-0.dtd"
   xmlns:inkscape="http://www.inkscape.org/namespaces/inkscape"
   version="1.1"
   x="0px"
   y="0px"
   width="100px"
   height="100px"
   viewBox="0 0 100 100"
   enable-background="new 0 0 100 100"
   xml:space="preserve"
   id="svg2"
   inkscape:version="0.91 r13725"
   sodipodi:docname="text.svg"
   inkscape:export-filename="C:\Users\wilkie\occam\configuration.png"
   inkscape:export-xdpi="18"
   inkscape:export-ydpi="18"><metadata
     id="metadata122"><rdf:RDF><cc:Work
         rdf:about=""><dc:format>image/svg+xml</dc:format><dc:type
           rdf:resource="http://purl.org/dc/dcmitype/StillImage" /><dc:title /></cc:Work></rdf:RDF></metadata><defs
     id="defs120" /><sodipodi:namedview
     pagecolor="#ffffff"
     bordercolor="#666666"
     borderopacity="1"
     objecttolerance="10"
     gridtolerance="10"
     guidetolerance="10"
     inkscape:pageopacity="0"
     inkscape:pageshadow="2"
     inkscape:window-width="1920"
     inkscape:window-height="1057"
     id="namedview118"
     showgrid="false"
     inkscape:zoom="6.7387276"
     inkscape:cx="73.79377"
     inkscape:cy="56.413669"
     inkscape:window-x="-8"
     inkscape:window-y="1072"
     inkscape:window-maximized="1"
     inkscape:current-layer="svg2"
     inkscape:object-nodes="false" /><path
     style="color:#000000;font-style:normal;font-variant:normal;font-weight:normal;font-stretch:normal;font-size:medium;line-height:normal;font-family:sans-serif;text-indent:0;text-align:start;text-decoration:none;text-decoration-line:none;text-decoration-style:solid;text-decoration-color:#000000;letter-spacing:normal;word-spacing:normal;text-transform:none;direction:ltr;writing-mode:lr-tb;baseline-shift:baseline;text-anchor:start;white-space:normal;clip-rule:nonzero;display:inline;overflow:visible;visibility:visible;opacity:1;isolation:auto;mix-blend-mode:normal;color-interpolation:sRGB;color-interpolation-filters:linearRGB;solid-color:#000000;solid-opacity:1;fill:#2da0b7;fill-opacity:1;fill-rule:nonzero;stroke:none;stroke-width:3.84708214;stroke-linecap:butt;stroke-linejoin:miter;stroke-miterlimit:4;stroke-dasharray:none;stroke-dashoffset:0;stroke-opacity:1;color-rendering:auto;image-rendering:auto;shape-rendering:auto;text-rendering:auto;enable-background:accumulate"
     d="M 32.353516,1.0390625 C 25.446321,7.8584722 18.363873,15.024901 12.439451,20.95117 l 0,2.054687 22.736328,0 0,-21.9667945 z m 4.757812,0 0,7.8476563 42.601563,0 c 0.0032,24.7111032 0,57.5166852 0,82.2265622 l -59.425782,0 c 0,-19.218353 -6.21e-4,-42.849981 0,-66.171875 l -7.847656,0 0,73.835938 0,0.183594 0.183594,0 74.753906,0 0.183594,0 0,-0.183594 0,-97.5546878 0,-0.1835937 -0.183594,0 z m -6.105469,7.2871094 0,10.4628901 -10.46289,0 z"
     id="rect962-5"
     inkscape:connector-curvature="0"
     sodipodi:nodetypes="ccccccccccccccccccccccccccc" /><g
     aria-label="T"
     style="font-style:normal;font-variant:normal;font-weight:normal;font-stretch:normal;font-size:84.83261871px;line-height:1.25;font-family:inconsolata;-inkscape-font-specification:inconsolata;letter-spacing:0px;word-spacing:0px;fill:#2da0b7;fill-opacity:1;stroke:none;stroke-width:2.12081552"
     id="text5776"
     transform="matrix(0.92103946,0,0,0.92103946,3.9864143,4.5132545)"><path
       d="m 62.956555,83.626133 c -6.956275,-0.33933 -8.059099,-1.357321 -8.143932,-7.634935 l 0,-43.349468 4.580962,0 c 9.840584,0.169665 11.622069,1.611819 13.488386,10.858575 l 2.035983,0 -0.508996,-14.421545 -47.845597,0 -0.508995,14.421545 2.035983,0 c 1.95115,-9.246756 3.732635,-10.68891 13.488386,-10.858575 l 4.580961,0 0,42.416309 c -0.08483,7.295605 -0.848326,8.143931 -7.974266,8.568094 l 0,1.61182 24.771125,0 z"
       style="font-style:normal;font-variant:normal;font-weight:normal;font-stretch:normal;font-family:Times;-inkscape-font-specification:Times;fill:#2da0b7;fill-opacity:1;stroke-width:2.12081552"
       id="path5778"
       inkscape:connector-curvature="0" /></g></svg>