<?xml version="1.0" encoding="UTF-8" standalone="no"?>
<svg
   xmlns:dc="http://purl.org/dc/elements/1.1/"
   xmlns:cc="http://creativecommons.org/ns#"
   xmlns:rdf="http://www.w3.org/1999/02/22-rdf-syntax-ns#"
   xmlns:svg="http://www.w3.org/2000/svg"
   xmlns="http://www.w3.org/2000/svg"
   xmlns:sodipodi="http://sodipodi.sourceforge.net/DTD/sodipodi-0.dtd"
   xmlns:inkscape="http://www.inkscape.org/namespaces/inkscape"
   version="1.1"
   id="svg2985"
   height="200"
   width="200"
   sodipodi:docname="tracks.svg"
   inkscape:version="0.91 r13725"
   inkscape:export-filename="C:\Users\wilkie\Documents\RAWRS\icon_48x48.png"
   inkscape:export-xdpi="16.889999"
   inkscape:export-ydpi="16.889999">
  <sodipodi:namedview
     pagecolor="#ffffff"
     bordercolor="#666666"
     borderopacity="1"
     objecttolerance="10"
     gridtolerance="10"
     guidetolerance="10"
     inkscape:pageopacity="0"
     inkscape:pageshadow="2"
     inkscape:window-width="1920"
     inkscape:window-height="1057"
     id="namedview4880"
     showgrid="false"
     inkscape:object-nodes="false"
     inkscape:zoom="0.4633688"
     inkscape:cx="701.26394"
     inkscape:cy="150.89685"
     inkscape:window-x="-8"
     inkscape:window-y="1072"
     inkscape:window-maximized="1"
     inkscape:current-layer="svg2985"
     fit-margin-top="0"
     fit-margin-left="0"
     fit-margin-right="0"
     fit-margin-bottom="0" />
  <defs
     id="defs2987" />
  <metadata
     id="metadata2990">
    <rdf:RDF>
      <cc:Work
         rdf:about="">
        <dc:format>image/svg+xml</dc:format>
        <dc:type
           rdf:resource="http://purl.org/dc/dcmitype/StillImage" />
        <dc:title></dc:title>
      </cc:Work>
    </rdf:RDF>
  </metadata>
  <g
     style="font-style:normal;font-weight:normal;font-size:151.83480835px;line-height:125%;font-family:'Cinzel Decorative Bold';-inkscape-font-specification:'Cinzel Decorative Bold';letter-spacing:0px;word-spacing:0px;fill:#488e9c;fill-opacity:1;stroke:none"
     id="text2993"
     transform="translate(-285.13541,-385.8429)" />
  <g
     id="g6159"
     transform="translate(-370.62114,28.829309)">
    <path
       sodipodi:nodetypes="czsc"
       inkscape:connector-curvature="0"
       id="path4697-7-5-6"
       d="m 388.62115,119.15093 c 6.15658,7.01795 11.55153,12.96056 14.22484,13.02972 2.67329,0.0692 7.28667,-6.83394 3.75178,-7.49944 -11.28227,-2.12411 -11.9844,-3.68685 -17.97662,-5.53028 z"
       style="fill:#006680;fill-rule:evenodd;stroke:none;stroke-width:1.5441345px;stroke-linecap:butt;stroke-linejoin:miter;stroke-opacity:1" />
    <path
       sodipodi:nodetypes="cssc"
       inkscape:connector-curvature="0"
       id="path4699-8-6-0"
       d="m 407.48352,99.107121 c 4.36551,8.863689 3.14145,13.207439 4.80164,15.074359 2.98537,3.35708 8.99379,0.44199 7.6847,-3.92384 -0.95093,-3.17136 -6.85827,-4.15138 -12.48634,-11.150519 z"
       style="fill:#006680;fill-rule:evenodd;stroke:none;stroke-width:1.5441345px;stroke-linecap:butt;stroke-linejoin:miter;stroke-opacity:1" />
    <path
       sodipodi:nodetypes="cssc"
       inkscape:connector-curvature="0"
       id="path4701-4-7-2"
       d="m 433.51047,93.169871 c -0.86219,10.602859 -4.43731,11.808349 -3.30397,15.838219 0.59486,2.11516 8.10983,4.32482 8.97386,-0.88138 0.51799,-3.12129 -4.77656,-10.504869 -5.66989,-14.956839 z"
       style="fill:#006680;fill-rule:evenodd;stroke:none;stroke-width:1.5441345px;stroke-linecap:butt;stroke-linejoin:miter;stroke-opacity:1" />
    <path
       sodipodi:nodetypes="ccccsc"
       inkscape:connector-curvature="0"
       id="path4705-3-3-38"
       d="m 405.59636,133.3062 c 1.31158,0.81492 2.20732,1.86398 4.60117,2.06954 2.42635,-1.77248 3.23184,-4.33642 3.17605,-7.32093 -1.11558,-1.33226 -2.60189,-1.78919 -4.15363,-2.09154 -0.95384,1.98672 0.45995,2.79106 -0.10441,3.7788 -1.21101,2.1195 -1.88533,0.0542 -3.51918,3.56413 z"
       style="fill:#006680;fill-rule:evenodd;stroke:none;stroke-width:1.5441345px;stroke-linecap:butt;stroke-linejoin:miter;stroke-opacity:1" />
    <path
       sodipodi:nodetypes="ccccsc"
       inkscape:connector-curvature="0"
       id="path4705-9-7-0-1"
       d="m 414.87689,117.66542 c 0.71766,1.36723 0.95821,2.72553 2.91771,4.11591 2.98994,-0.29835 4.98372,-2.10045 6.44815,-4.70156 -0.28654,-1.71387 -1.33627,-2.86102 -2.52077,-3.90808 -1.82909,1.2293 -1.01797,2.63919 -2.00506,3.20468 -2.11812,1.21343 -1.65276,-0.90871 -4.84003,1.28905 z"
       style="fill:#006680;fill-rule:evenodd;stroke:none;stroke-width:1.5441345px;stroke-linecap:butt;stroke-linejoin:miter;stroke-opacity:1" />
    <path
       sodipodi:nodetypes="ccccsc"
       inkscape:connector-curvature="0"
       id="path4705-9-3-5-1-41"
       d="m 430.66041,112.806 c -0.0813,1.54199 -0.56828,2.83261 0.40621,5.0288 3.35743,1.91037 5.81583,1.20184 7.94498,-0.74862 0.62903,-1.61982 0.31247,-3.14219 -0.17108,-4.64737 -2.20039,0.12263 -2.5793,1.60488 -3.71675,1.58689 -2.44078,-0.0386 -0.60063,-1.48125 -4.46337,-1.21969 z"
       style="fill:#006680;fill-rule:evenodd;stroke:none;stroke-width:1.5441345px;stroke-linecap:butt;stroke-linejoin:miter;stroke-opacity:1" />
    <path
       sodipodi:nodetypes="cscccc"
       inkscape:connector-curvature="0"
       id="path4737-7-7-36"
       d="m 415.59573,129.33648 c -0.53474,1.10168 -0.0412,2.17063 -0.53778,3.04242 -0.89585,1.5727 -1.97749,1.97412 -2.33008,3.03615 0.89236,1.39021 2.63746,1.93365 4.72371,2.1383 l 3.14467,-6.09079 c -1.49496,-0.9929 -2.71283,-2.44398 -5.00052,-2.12608 z"
       style="fill:#006680;fill-rule:evenodd;stroke:none;stroke-width:1.5441345px;stroke-linecap:butt;stroke-linejoin:miter;stroke-opacity:1" />
    <path
       sodipodi:nodetypes="cscccc"
       inkscape:connector-curvature="0"
       id="path4737-1-8-8-57"
       d="m 439.0796,119.87638 c -1.37396,0.0138 -2.23731,1.00928 -3.35862,0.9489 -2.02289,-0.10889 -2.93505,-0.96426 -4.18396,-0.79297 -1.00651,1.53778 -0.75205,3.49353 0.007,5.6165 l 7.68353,0.10674 c 0.32088,-1.93035 1.23859,-3.81335 -0.1479,-5.87917 z"
       style="fill:#006680;fill-rule:evenodd;stroke:none;stroke-width:1.70258546px;stroke-linecap:butt;stroke-linejoin:miter;stroke-opacity:1" />
    <path
       sodipodi:nodetypes="ccccccc"
       inkscape:connector-curvature="0"
       id="path4754-3-5-5"
       d="m 419.30707,138.76252 c 0.22892,-0.15608 3.13926,-6.93649 3.13926,-6.93649 7.35722,3.38265 8.38273,-0.41699 9.21507,-4.43575 l 7.94732,0.23238 c 1.30302,3.60544 1.34363,7.05196 0.10086,9.84798 -4.13423,0.84411 -7.20268,2.44032 -10.84045,5.55311 -2.76737,-0.7288 -6.57553,-1.30087 -9.56206,-4.26123 z"
       style="fill:#006680;fill-rule:evenodd;stroke:none;stroke-width:1.5441345px;stroke-linecap:butt;stroke-linejoin:miter;stroke-opacity:1" />
    <path
       sodipodi:nodetypes="ccccc"
       inkscape:connector-curvature="0"
       id="path4756-3-7-1"
       d="m 430.46219,145.00283 c 2.19214,-2.16561 4.84532,-4.27001 10.27296,-6.00604 l 3.29472,9.40338 c -2.63361,0.30413 -4.4314,2.0379 -6.28574,3.67492 z"
       style="fill:#006680;fill-rule:evenodd;stroke:none;stroke-width:1.5441345px;stroke-linecap:butt;stroke-linejoin:miter;stroke-opacity:1" />
    <path
       sodipodi:nodetypes="ccccc"
       inkscape:connector-curvature="0"
       id="path4758-3-3-8"
       d="m 439.36507,153.77099 c 2.9644,-2.83827 4.00376,-2.57053 5.60949,-3.21671 l 1.59214,4.23043 -4.08103,2.38598 z"
       style="fill:#006680;fill-rule:evenodd;stroke:none;stroke-width:1.5441345px;stroke-linecap:butt;stroke-linejoin:miter;stroke-opacity:1" />
    <path
       sodipodi:nodetypes="scccs"
       inkscape:connector-curvature="0"
       id="path4760-0-1-1"
       d="m 422.65398,122.11823 c -1.4652,1.00722 -2.75565,1.38474 -3.83546,1.15449 1.75495,4.99771 4.91113,5.62752 7.90982,5.08283 2.77913,-4.46854 0.6442,-7.6933 -1.57347,-9.73136 -0.5854,1.38114 -1.18597,2.59012 -2.50089,3.49404 z"
       style="fill:#006680;fill-rule:evenodd;stroke:none;stroke-width:1.5441345px;stroke-linecap:butt;stroke-linejoin:miter;stroke-opacity:1" />
  </g>
  <g
     transform="translate(-270.62114,-71.170696)"
     id="g6277">
    <path
       style="fill:#006680;fill-rule:evenodd;stroke:none;stroke-width:1.5441345px;stroke-linecap:butt;stroke-linejoin:miter;stroke-opacity:1"
       d="m 388.62115,119.15093 c 6.15658,7.01795 11.55153,12.96056 14.22484,13.02972 2.67329,0.0692 7.28667,-6.83394 3.75178,-7.49944 -11.28227,-2.12411 -11.9844,-3.68685 -17.97662,-5.53028 z"
       id="path6279"
       inkscape:connector-curvature="0"
       sodipodi:nodetypes="czsc" />
    <path
       style="fill:#006680;fill-rule:evenodd;stroke:none;stroke-width:1.5441345px;stroke-linecap:butt;stroke-linejoin:miter;stroke-opacity:1"
       d="m 407.48352,99.107121 c 4.36551,8.863689 3.14145,13.207439 4.80164,15.074359 2.98537,3.35708 8.99379,0.44199 7.6847,-3.92384 -0.95093,-3.17136 -6.85827,-4.15138 -12.48634,-11.150519 z"
       id="path6281"
       inkscape:connector-curvature="0"
       sodipodi:nodetypes="cssc" />
    <path
       style="fill:#006680;fill-rule:evenodd;stroke:none;stroke-width:1.5441345px;stroke-linecap:butt;stroke-linejoin:miter;stroke-opacity:1"
       d="m 433.51047,93.169871 c -0.86219,10.602859 -4.43731,11.808349 -3.30397,15.838219 0.59486,2.11516 8.10983,4.32482 8.97386,-0.88138 0.51799,-3.12129 -4.77656,-10.504869 -5.66989,-14.956839 z"
       id="path6283"
       inkscape:connector-curvature="0"
       sodipodi:nodetypes="cssc" />
    <path
       style="fill:#006680;fill-rule:evenodd;stroke:none;stroke-width:1.5441345px;stroke-linecap:butt;stroke-linejoin:miter;stroke-opacity:1"
       d="m 405.59636,133.3062 c 1.31158,0.81492 2.20732,1.86398 4.60117,2.06954 2.42635,-1.77248 3.23184,-4.33642 3.17605,-7.32093 -1.11558,-1.33226 -2.60189,-1.78919 -4.15363,-2.09154 -0.95384,1.98672 0.45995,2.79106 -0.10441,3.7788 -1.21101,2.1195 -1.88533,0.0542 -3.51918,3.56413 z"
       id="path6285"
       inkscape:connector-curvature="0"
       sodipodi:nodetypes="ccccsc" />
    <path
       style="fill:#006680;fill-rule:evenodd;stroke:none;stroke-width:1.5441345px;stroke-linecap:butt;stroke-linejoin:miter;stroke-opacity:1"
       d="m 414.87689,117.66542 c 0.71766,1.36723 0.95821,2.72553 2.91771,4.11591 2.98994,-0.29835 4.98372,-2.10045 6.44815,-4.70156 -0.28654,-1.71387 -1.33627,-2.86102 -2.52077,-3.90808 -1.82909,1.2293 -1.01797,2.63919 -2.00506,3.20468 -2.11812,1.21343 -1.65276,-0.90871 -4.84003,1.28905 z"
       id="path6287"
       inkscape:connector-curvature="0"
       sodipodi:nodetypes="ccccsc" />
    <path
       style="fill:#006680;fill-rule:evenodd;stroke:none;stroke-width:1.5441345px;stroke-linecap:butt;stroke-linejoin:miter;stroke-opacity:1"
       d="m 430.66041,112.806 c -0.0813,1.54199 -0.56828,2.83261 0.40621,5.0288 3.35743,1.91037 5.81583,1.20184 7.94498,-0.74862 0.62903,-1.61982 0.31247,-3.14219 -0.17108,-4.64737 -2.20039,0.12263 -2.5793,1.60488 -3.71675,1.58689 -2.44078,-0.0386 -0.60063,-1.48125 -4.46337,-1.21969 z"
       id="path6289"
       inkscape:connector-curvature="0"
       sodipodi:nodetypes="ccccsc" />
    <path
       style="fill:#006680;fill-rule:evenodd;stroke:none;stroke-width:1.5441345px;stroke-linecap:butt;stroke-linejoin:miter;stroke-opacity:1"
       d="m 415.59573,129.33648 c -0.53474,1.10168 -0.0412,2.17063 -0.53778,3.04242 -0.89585,1.5727 -1.97749,1.97412 -2.33008,3.03615 0.89236,1.39021 2.63746,1.93365 4.72371,2.1383 l 3.14467,-6.09079 c -1.49496,-0.9929 -2.71283,-2.44398 -5.00052,-2.12608 z"
       id="path6291"
       inkscape:connector-curvature="0"
       sodipodi:nodetypes="cscccc" />
    <path
       style="fill:#006680;fill-rule:evenodd;stroke:none;stroke-width:1.70258546px;stroke-linecap:butt;stroke-linejoin:miter;stroke-opacity:1"
       d="m 439.0796,119.87638 c -1.37396,0.0138 -2.23731,1.00928 -3.35862,0.9489 -2.02289,-0.10889 -2.93505,-0.96426 -4.18396,-0.79297 -1.00651,1.53778 -0.75205,3.49353 0.007,5.6165 l 7.68353,0.10674 c 0.32088,-1.93035 1.23859,-3.81335 -0.1479,-5.87917 z"
       id="path6293"
       inkscape:connector-curvature="0"
       sodipodi:nodetypes="cscccc" />
    <path
       style="fill:#006680;fill-rule:evenodd;stroke:none;stroke-width:1.5441345px;stroke-linecap:butt;stroke-linejoin:miter;stroke-opacity:1"
       d="m 419.30707,138.76252 c 0.22892,-0.15608 3.13926,-6.93649 3.13926,-6.93649 7.35722,3.38265 8.38273,-0.41699 9.21507,-4.43575 l 7.94732,0.23238 c 1.30302,3.60544 1.34363,7.05196 0.10086,9.84798 -4.13423,0.84411 -7.20268,2.44032 -10.84045,5.55311 -2.76737,-0.7288 -6.57553,-1.30087 -9.56206,-4.26123 z"
       id="path6295"
       inkscape:connector-curvature="0"
       sodipodi:nodetypes="ccccccc" />
    <path
       style="fill:#006680;fill-rule:evenodd;stroke:none;stroke-width:1.5441345px;stroke-linecap:butt;stroke-linejoin:miter;stroke-opacity:1"
       d="m 430.46219,145.00283 c 2.19214,-2.16561 4.84532,-4.27001 10.27296,-6.00604 l 3.29472,9.40338 c -2.63361,0.30413 -4.4314,2.0379 -6.28574,3.67492 z"
       id="path6297"
       inkscape:connector-curvature="0"
       sodipodi:nodetypes="ccccc" />
    <path
       style="fill:#006680;fill-rule:evenodd;stroke:none;stroke-width:1.5441345px;stroke-linecap:butt;stroke-linejoin:miter;stroke-opacity:1"
       d="m 439.36507,153.77099 c 2.9644,-2.83827 4.00376,-2.57053 5.60949,-3.21671 l 1.59214,4.23043 -4.08103,2.38598 z"
       id="path6299"
       inkscape:connector-curvature="0"
       sodipodi:nodetypes="ccccc" />
    <path
       style="fill:#006680;fill-rule:evenodd;stroke:none;stroke-width:1.5441345px;stroke-linecap:butt;stroke-linejoin:miter;stroke-opacity:1"
       d="m 422.65398,122.11823 c -1.4652,1.00722 -2.75565,1.38474 -3.83546,1.15449 1.75495,4.99771 4.91113,5.62752 7.90982,5.08283 2.77913,-4.46854 0.6442,-7.6933 -1.57347,-9.73136 -0.5854,1.38114 -1.18597,2.59012 -2.50089,3.49404 z"
       id="path6301"
       inkscape:connector-curvature="0"
       sodipodi:nodetypes="scccs" />
  </g>
</svg>
