<svg xmlns="http://www.w3.org/2000/svg" data-name="Layer 2" viewBox="0 0 512 512" x="0px" y="0px"><title>elasmosaurus extinct wildlife animal dinosaur</title><path d="M55.94,435.3a105.86,105.86,0,0,0,37.36,7.14c20.62,0,43.9-6.8,66.89-27.59a4.33,4.33,0,1,0-5.81-6.43C119,440.38,83,436.27,59,427.19a2.73,2.73,0,0,1-1.83-2.8,2.61,2.61,0,0,1,2-2.5c16.32-4.19,31.94-12.41,46.42-24.44,19.8-16.43,35.09-38.67,44.23-64.3,18-50.38,46.18-82.65,83.85-95.92,30.41-10.72,58.1-5.71,68.59-3.06,18.12,4.58,59.46-1.07,77.34-28.64,21.51-33.18-.67-66-5.33-72.23-2.31-3.09-4.16-5.73-5.81-8.29a130.38,130.38,0,0,1-7.33-13,47.45,47.45,0,0,1,42.58-68.2l47.35-.15h0a3.61,3.61,0,0,1,2.62,1.11,3.74,3.74,0,0,1,1.06,2.77c-.46,14-7.7,37.75-50.94,39.82a14.86,14.86,0,0,0-12.4,7.76,14.62,14.62,0,0,0,.14,14.42l.2.34.16.24c.26.38,26.15,37.8,32.7,66.26,12,52.27,1.66,89.85-9.15,112.17-11.73,24.2-26.52,36.25-26.66,36.36a4.35,4.35,0,0,0-1.63,3.12c-4.42,70.81-43.75,88.42-76,90.73a3.75,3.75,0,0,1-2.94-6.36,98.18,98.18,0,0,0,20.73-33c.14-.4,3.35-10.12,2.71-25.9a4.34,4.34,0,1,0-8.67.35c.57,14-2.23,22.71-2.24,22.74s-5.87,16.62-18.71,29.71a12.42,12.42,0,0,0,9.74,21.09c29-2.08,78.18-17.47,83.88-97,4.28-3.83,16.84-16.16,27.33-37.63,11.56-23.64,22.67-63.36,10-118.35-6.79-29.48-31.92-66.2-33.94-69.13l-.06-.09a6,6,0,0,1,0-5.93,6.22,6.22,0,0,1,5.2-3.26c52.06-2.49,58.75-34.53,59.2-48.19a12.36,12.36,0,0,0-3.5-9.1,12.14,12.14,0,0,0-8.9-3.74l-47.35.15a56.12,56.12,0,0,0-50.34,80.69,138.57,138.57,0,0,0,7.83,13.85c1.76,2.74,3.72,5.53,6.15,8.79,4.06,5.43,23.38,34,5,62.32C357,224.58,320,229.69,304.44,225.76c-11.25-2.84-40.95-8.21-73.59,3.29-40.26,14.18-70.25,48.23-89.14,101.19-8.62,24.17-23,45.1-41.59,60.54-13.5,11.2-28,18.85-43.05,22.72a11.45,11.45,0,0,0-1.13,21.8Z"></path><path d="M166,459.24A11.74,11.74,0,0,0,176,477a12.06,12.06,0,0,0,3.35-.48c26.7-7.86,71.2-30.63,74.43-95.37,8.67,1.44,27.27,4.1,45.83,3.95a4.34,4.34,0,1,0-.07-8.67c-18.73.14-38-2.77-45.68-4.07-.23-4.79-1.06-13.33-4-20.32a4.33,4.33,0,0,0-8,3.36c3.54,8.4,3.41,20.38,3.41,20.54h0c-1,63.07-43.26,84.88-68.37,92.26a3,3,0,0,1-3.29-1.07,3,3,0,0,1-.22-3.44,68.29,68.29,0,0,0,3.44-6.6,75.35,75.35,0,0,0,6.45-36.63,217.45,217.45,0,0,1,.72-33.8c0-.06,0-.14,0-.2,0-.38,2.64-37.5,26-43.19a4.34,4.34,0,0,0-2.05-8.43c-29.15,7.1-32.43,48-32.63,51a221.86,221.86,0,0,0-.74,35.26A66.81,66.81,0,0,1,169,453.47,61.27,61.27,0,0,1,166,459.24Z"></path><path d="M411.86,63.86a4.34,4.34,0,0,0,0-8.68h-8.93a4.34,4.34,0,0,0,0,8.68Z"></path></svg>