<svg xmlns="http://www.w3.org/2000/svg" data-name="Layer 2" viewBox="0 0 512 512" x="0px" y="0px"><title>spinosaurus extinct wildlife animal dinosaur</title><path d="M89.16,408a92.89,92.89,0,0,0,44.3,19.52c18.06,2.89,45.08,3.39,71.28-10.69a146.07,146.07,0,0,1,15.18-7.23,224.07,224.07,0,0,1,41.48-12.05,4.13,4.13,0,0,0-1.47-8.12A233,233,0,0,0,216.88,402a153.59,153.59,0,0,0-16,7.64c-24.17,13-49.26,12.5-66.06,9.8a84.55,84.55,0,0,1-40.38-17.75C80.22,390,70.94,374.78,66.79,356.37a78.69,78.69,0,0,1,6.41-52.62c8.18-16.19,19.56-24.57,28.37-28.87-7,10.7-10.6,23.49-12.49,33.67a61.77,61.77,0,0,0,.63,26.5c6.5,25.89,25.75,33.33,40.75,35,19.46,2.18,39.13-4.73,54-19a135.78,135.78,0,0,0,21.23-26.65c28.92-50.32,63.88-76.55,88.11-89.71,26.27-14.25,46-16.65,46.16-16.67a2.2,2.2,0,0,0,.37-.06,63.74,63.74,0,0,0,12.86-4c22.44-9.8,33.32-36,24.76-59.54a60.11,60.11,0,0,0-12.65-20.63,58.34,58.34,0,0,0-52.65-17.37c-2.1.35-4.23.77-6.32,1.24a15.85,15.85,0,0,1-12.8-2.68A15.41,15.41,0,0,1,287.2,104c0-.3-.05-.6-.07-.9a8.87,8.87,0,0,1,2.3-6.72,8.69,8.69,0,0,1,6.43-2.72h35.95a31.54,31.54,0,0,0,17.3-5.19c2.5-1.64,5-3.21,7.56-4.66a37.6,37.6,0,0,1,18.84-5A38.07,38.07,0,0,1,405.92,94c13.11,17.63,17.95,39.94,18,40.27,10.51,44-2.19,91.76-14.69,124.1a4,4,0,0,0-.28,1.41c-.47,27.27,1.77,53.93,1.79,54.2a4.12,4.12,0,0,0,4.11,3.77h17.47a14.82,14.82,0,0,1,14.8,14.8v17.11a8,8,0,0,1-4.54,7.22,8,8,0,0,1-11.47-7.22V337.91a4.13,4.13,0,0,0-4.13-4.13H408.08a18.7,18.7,0,0,1-18.69-18.68v-1.05a.49.49,0,0,0,0-.12l-.15-17.68a4.12,4.12,0,0,0-4.12-4.09h0a4.13,4.13,0,0,0-4.09,4.16l.13,16.41a229.25,229.25,0,0,1-33.09,37c-.64-32.45-28.56-38.26-28.87-38.32a4.13,4.13,0,0,0-1.57,8.1c1.08.2,26.18,5.46,21.66,39.14-4.4,28.95-26.41,49.3-26.63,49.5a4.12,4.12,0,0,0,2.77,7.18c13.95,0,23.7,7.5,29.42,13.8a2.42,2.42,0,0,1,.46,2.71,2.35,2.35,0,0,1-2.23,1.44h-56.2a7,7,0,0,1-6.23-3.69,7,7,0,0,1,.21-7.15,75.68,75.68,0,0,0,11.59-32.08v0s0,0,0-.05a68.84,68.84,0,0,0-10-42.26,4.12,4.12,0,0,0-6.8,4.67,61,61,0,0,1,8.56,36.78A67.51,67.51,0,0,1,273.86,418a15.33,15.33,0,0,0,13,23.51H343a10.71,10.71,0,0,0,7.88-17.95c-5.59-6.15-14.43-13.26-26.72-15.66,7.37-8.53,19.27-25.09,23-46.5,5.89-4.91,11.53-10.14,16.93-15.63a84.59,84.59,0,0,1-19.7,51.65,4.12,4.12,0,0,0,1.77,6.53c.19.07,19,7,30.32,24.65a2.91,2.91,0,0,1,.09,3,3.1,3.1,0,0,1-2.73,1.63h-4.67a4.13,4.13,0,0,0,0,8.25h4.67a11.35,11.35,0,0,0,10-5.92,11.09,11.09,0,0,0-.38-11.44c-9.13-14.22-22.18-22.17-29.34-25.7,16.24-21.75,19-45.11,18.23-61.31,0-.05,0-.11,0-.16,3.62-4.08,7.13-8.29,10.48-12.63A27,27,0,0,0,408.08,342h14.8v7.65a16.25,16.25,0,0,0,23.29,14.66,16.34,16.34,0,0,0,9.22-14.66V332.57a23.08,23.08,0,0,0-23.05-23.05H418.69c-.25-3.56-.63-9.41-.95-16.6h4.41a16.84,16.84,0,0,1,13.63,7,4.12,4.12,0,1,0,6.69-4.82,25.08,25.08,0,0,0-20.32-10.43h-4.72c-.23-7.41-.36-15.66-.23-24C430,227.26,442.89,178.11,432,132.48c-.21-1-5.24-24.27-19.46-43.38a46.14,46.14,0,0,0-60-12.49c-2.65,1.54-5.32,3.19-8,4.91a23.37,23.37,0,0,1-12.78,3.84H295.86a16.87,16.87,0,0,0-17,18.24c0,.36.05.73.09,1.1a23.68,23.68,0,0,0,9.67,17,24.11,24.11,0,0,0,19.46,4.06c1.95-.44,3.94-.83,5.9-1.16a50.09,50.09,0,0,1,45.24,14.87,51.86,51.86,0,0,1,10.92,17.82,40,40,0,0,1,2.2,17.89c-12.62,5.66-25.69,5-38.85-1.88a4.12,4.12,0,0,0-3.84,7.3,54.09,54.09,0,0,0,25.39,6.62,49.77,49.77,0,0,0,15-2.35,37.7,37.7,0,0,1-20.23,21.58,56,56,0,0,1-11.05,3.46,115.18,115.18,0,0,0-21.5,5.44l-1.61-56.65a4.12,4.12,0,0,0-8.24.24l0,1.07a140,140,0,0,0-38.34-10,4.13,4.13,0,1,0-.87,8.21,135.42,135.42,0,0,1,39.46,10.89l1.41,49.32a183.76,183.76,0,0,0-18.9,8.88c-2.11,1.14-4.3,2.38-6.55,3.71l-35.06-85.3a4.13,4.13,0,0,0-7.63,3.14l.76,1.83a84.05,84.05,0,0,0-34.19,13.79A4.13,4.13,0,0,0,210,172a4.17,4.17,0,0,0,2.35-.73A75.94,75.94,0,0,1,245,158.48l31.61,76.9a212.55,212.55,0,0,0-21.9,16.33L191.66,171a4.12,4.12,0,0,0-6.5,5.08l4.11,5.25c-9,10.77-16.15,24.22-21.37,40a4.12,4.12,0,1,0,7.83,2.58c4.67-14.12,11-26.19,18.74-35.93l54.05,69.19a240.71,240.71,0,0,0-21.32,22.15l-65.24-44a4.12,4.12,0,0,0-4.61,6.84l4.49,3A237.87,237.87,0,0,0,158,280.46a4.11,4.11,0,0,0,4,4.27h.15a4.13,4.13,0,0,0,4.12-4,233.31,233.31,0,0,1,3.06-30.5l52.63,35.46A275.06,275.06,0,0,0,201.69,315L155,296.3A4.13,4.13,0,0,0,152,304l6.19,2.48c0,2.39-.17,4.7-.4,6.88-3.08,29.91-18,42.62-30,48-15.93-2.88-26-12.37-30-28.29a53.74,53.74,0,0,1-.52-23c2-10.61,7.16-30,19.86-40.47a4.12,4.12,0,0,0-3.11-7.27c-1.26.15-31.08,4-48.1,37.72a87,87,0,0,0-7.1,58.14A89.06,89.06,0,0,0,89.16,408ZM166,314.16c.15-1.44.26-2.93.34-4.46l31.11,12.44a131.31,131.31,0,0,1-18.67,23A60.3,60.3,0,0,1,142.55,362C153.3,353.56,163.39,339.09,166,314.16Z"></path><path d="M377.06,90.07h-6.64a4.13,4.13,0,0,0,0,8.25h6.64a4.13,4.13,0,1,0,0-8.25Z"></path></svg>