<svg xmlns="http://www.w3.org/2000/svg" data-name="Layer 2" viewBox="0 0 512 512" x="0px" y="0px"><title>triceratops extinct wildlife animal dinosaur</title><path d="M94.33,354.26c-31.4,14.79-57.94,14.3-74.68,11.28a2.51,2.51,0,0,1-2.12-2.13,2.44,2.44,0,0,1,1.25-2.63c23.29-13.26,43.82-42.1,51.56-53.88,5.66-8.62,10.8-16.16,15.71-23,30.12-42.29,64.18-84.11,73.9-95.92a116.43,116.43,0,0,1,8.79-9.63c36.12-35,78.23-34.21,107.19-27.39a4.12,4.12,0,0,0,1.89-8c-31-7.29-76-8.09-114.82,29.5a126.16,126.16,0,0,0-9.42,10.31c-9.76,11.86-44,53.86-74.25,96.38-5,7-10.16,14.59-15.88,23.3-7.42,11.28-27,38.87-48.75,51.24a10.82,10.82,0,0,0,3.48,20.05,118.15,118.15,0,0,0,20.88,1.83c16.25,0,36.39-3.22,58.79-13.77a4.12,4.12,0,1,0-3.52-7.46Z"></path><path d="M501.41,210.26a4.12,4.12,0,0,0-7-1.87c-10.35,10.78-23,15-31.21,15.46a155.6,155.6,0,0,0-14.73-9.4,173.53,173.53,0,0,0-25.35-11.69c26.43-33.66,59-46.29,59.29-46.42a4.12,4.12,0,0,0-.63-7.9c-43.34-8.81-77.7,16.81-95.75,34.81-19.33-16.09-27.72-37.44-24.95-63.5a13.7,13.7,0,0,0-21.57-12.56c-11.33,8.09-27.32,22.85-39.18,47.19h0v0l0,.05h0a77.12,77.12,0,0,0-7.21,32.25c0,16.74,6.37,40.2,36.43,57a4.13,4.13,0,1,0,4-7.21c-50.55-28.18-26.91-76.22-25.85-78.32l0,0,0,0c11.11-22.83,26-36.62,36.59-44.17a5.46,5.46,0,0,1,8.58,5c-3,28.54,6.57,52.87,27.8,70.63a21.38,21.38,0,0,0-2.06,20.28,21,21,0,0,0,16.55,13,59.45,59.45,0,0,0,6.39.58h.17a4.12,4.12,0,0,0,.16-8.24,54.07,54.07,0,0,1-5.53-.5,12.88,12.88,0,0,1-10.11-8,13.19,13.19,0,0,1,1.67-13.1c.77-1,1.33-1.75,1.57-2.05,14.25-14.87,41.88-37.57,76.95-36.57a167.81,167.81,0,0,0-53.33,47.39,4.11,4.11,0,0,0-.6,3.67,4.15,4.15,0,0,0,2.6,2.66,171.64,171.64,0,0,1,29.3,13,147.41,147.41,0,0,1,15,9.71,4.05,4.05,0,0,0,2.48.81c10.58-.06,22.65-4.85,32.41-12.58.46,7.61-.41,19.52-8.59,27.7-2.14-2.63-4.16-4.63-4.28-4.75a4.13,4.13,0,0,0-5.79,5.89,49,49,0,0,1,5.78,6.92,35.36,35.36,0,0,1,4.16,20.39A2.45,2.45,0,0,1,484,277.8a2.5,2.5,0,0,1-2.64-.56c-24.32-23.54-56.44-7.11-56.76-6.94h0l-7.89,4a4.13,4.13,0,0,0,1.88,7.8,4.08,4.08,0,0,0,1.88-.46l5.36-2.74c7,6.21,18.82,14.21,25.2,18.39-24,21.05-57.79.65-64.59-3.86a25.57,25.57,0,0,0-4.29-2.32A32.28,32.28,0,0,0,379,290a27.86,27.86,0,0,0-27.54,7.08c-8.9,8.75-17.43,16.62-25.36,23.4a36.78,36.78,0,0,0-10.82,15.55c-9,25.07-5,47.9-1.77,59.28a1.69,1.69,0,0,1-.28,1.52,1.65,1.65,0,0,1-1.34.67H279.79a7.59,7.59,0,0,1-7.36-5.61c-5.7-21.49-2.64-42.14.95-55.69.23-.83,4.74-16.34,9.92-26.46A4.13,4.13,0,1,0,276,306c-5.65,11.05-10.32,27.3-10.52,28a.06.06,0,0,1,0,0s0,0,0,0c-3.84,14.51-7.12,36.69-1,59.94a15.86,15.86,0,0,0,15.34,11.75H311.9a10,10,0,0,0,9.57-12.66c-2.92-10.44-6.6-31.37,1.59-54.29a28.43,28.43,0,0,1,8.41-12.05c6.28-5.37,12.94-11.42,19.84-18,19.23,25.82,23.8,69.08,24.87,87.07a3.11,3.11,0,0,1-3.12,3.31H354.2a6.64,6.64,0,0,1-6.63-6.19A76.51,76.51,0,0,0,335,355.14a4.13,4.13,0,0,0-6.89,4.54,68.31,68.31,0,0,1,11.24,33.77,14.89,14.89,0,0,0,14.86,13.93h18.86a11.39,11.39,0,0,0,11.36-12.05c-1.13-18.94-6-64.78-27.14-92.36a19.61,19.61,0,0,1,19.35-5c.76.23,1.54.51,2.31.83a17.74,17.74,0,0,1,2.91,1.59c8.13,5.38,50.13,30.63,78.76-.93a4.12,4.12,0,0,0-.85-6.25c-.19-.12-15.8-10-25.53-17.88,9-2.94,27-6.08,41.37,7.87a10.8,10.8,0,0,0,18.24-6.54,42.5,42.5,0,0,0-3.64-22.19C508.12,238.57,501.7,211.46,501.41,210.26Z"></path><path d="M116.65,343.12a0,0,0,0,1,0,0c-.41,3-.91,6-1.5,8.87-2,10.24-4.14,29.81,4.84,45.87a18.49,18.49,0,0,0,16.1,9.49h32a12.32,12.32,0,0,0,11.56-16.54,142.8,142.8,0,0,0-8.73-19.73,22.34,22.34,0,0,1-2.25-16.79,25.12,25.12,0,0,1,3.05-6.18,140.11,140.11,0,0,0,11.62-22.27q10.31.19,20.59,1.08c-5.07,11-7.05,23.85-7.79,33.07a19.85,19.85,0,0,0,4.78,14.53,60.19,60.19,0,0,1,9.54,15.64,6.27,6.27,0,0,1-.58,6,6.46,6.46,0,0,1-5.46,2.94H194.13a4.13,4.13,0,0,0,0,8.25h10.26a14.78,14.78,0,0,0,12.33-6.62A14.57,14.57,0,0,0,218,387a68.24,68.24,0,0,0-10.87-17.79,11.69,11.69,0,0,1-2.84-8.53c.62-7.62,2.52-22,8.34-32.88,10.28,1.15,20.51,2.79,30.6,4.92a4.12,4.12,0,0,0,1.71-8.07,329,329,0,0,0-58-6.93c13.72-31.86,6.47-56.12,6.13-57.2a4.12,4.12,0,0,0-7.88,2.44c.08.25,7.43,25.34-8.33,56.9,0,0,0,.07,0,.11l-.09.18a135.92,135.92,0,0,1-12.09,23.67,33.34,33.34,0,0,0-4,8.29,30.57,30.57,0,0,0,3,23,134.43,134.43,0,0,1,8.22,18.59,4.05,4.05,0,0,1-.49,3.74,4,4,0,0,1-3.32,1.73h-32a10.25,10.25,0,0,1-8.9-5.26c-7.69-13.75-5.77-31.11-4-40.23.61-3.05,1.14-6.17,1.57-9.28h0v-.07h0a47.8,47.8,0,0,0-7.59-34.43,4.13,4.13,0,1,0-6.57,5,39.71,39.71,0,0,1,6,28.24S116.66,343.1,116.65,343.12Z"></path><path d="M426.4,236.49a4.13,4.13,0,0,0,2.66-7.81l-6.61-2.24a4.12,4.12,0,1,0-2.65,7.8Z"></path></svg>